<?xml version="1.0" encoding="UTF-8" standalone="yes"?>
<!DOCTYPE svg PUBLIC "-//W3C//DTD SVG 1.1//EN" "http://www.w3.org/Graphics/SVG/1.1/DTD/svg11.dtd">

<svg width="321" height="358" viewBox="0 0 321 358" xmlns="http://www.w3.org/2000/svg" xmlns:xlink="http://www.w3.org/1999/xlink" version="1.1" baseProfile="full">
    <g transform="scale(1,-1) translate(0,-358)">
        <path d="M 2.392159 3.408661 L 2.830160 3.408661 L 2.840401 3.409178 L 2.850343 3.410695 L 2.859942 3.413164 L 2.869143 3.416531 L 2.877897 3.420750 L 2.886146 3.425761 L 2.886155 3.425766 L 2.886166 3.425773 L 2.893864 3.431531 L 2.900976 3.437995 L 2.907440 3.445107 L 2.913205 3.452817 L 2.918222 3.461073 L 2.922440 3.469829 L 2.925807 3.479031 L 2.928276 3.488627 L 2.929793 3.498572 L 2.930309 3.508792 L 2.930310 3.508811 L 2.930309 3.508832 L 2.929793 3.519052 L 2.928276 3.528995 L 2.925807 3.538593 L 2.922440 3.547795 L 2.918222 3.556550 L 2.913205 3.564807 L 2.907440 3.572517 L 2.900988 3.579617 L 2.900978 3.579629 L 2.900967 3.579638 L 2.893864 3.586093 L 2.886166 3.591851 L 2.886155 3.591858 L 2.886146 3.591863 L 2.877897 3.596874 L 2.869143 3.601093 L 2.859942 3.604460 L 2.850343 3.606929 L 2.840401 3.608445 L 2.830182 3.608961 L 2.830160 3.608963 L 2.383485 3.608963 L 2.383485 3.608943 L 1.945481 3.608943 L 1.925297 3.606908 L 1.906498 3.601072 L 1.889486 3.591839 L 1.874665 3.579609 L 1.862435 3.564788 L 1.853202 3.547776 L 1.847366 3.528977 L 1.845332 3.508793 L 1.847366 3.488609 L 1.853202 3.469811 L 1.862435 3.452799 L 1.874665 3.437978 L 1.889486 3.425748 L 1.906498 3.416514 L 1.925297 3.410679 L 1.945481 3.408645 Z M 2.053620 3.133121 L 2.102193 3.191996 L 2.161069 3.240570 L 2.228641 3.277249 L 2.303311 3.300428 L 2.383485 3.308509 L 2.463656 3.300428 L 2.538326 3.277249 L 2.605899 3.240570 L 2.664774 3.191996 L 2.713349 3.133121 L 2.726869 3.108209 L 3.100152 3.108209 L 3.110391 3.108727 L 3.120336 3.110244 L 3.129932 3.112713 L 3.139133 3.116079 L 3.147888 3.120297 L 3.156146 3.125315 L 3.163855 3.131078 L 3.170968 3.137544 L 3.177433 3.144655 L 3.183186 3.152353 L 3.183196 3.152366 L 3.183206 3.152380 L 3.188214 3.160623 L 3.192431 3.169376 L 3.195797 3.178578 L 3.198266 3.188176 L 3.199783 3.198121 L 3.200302 3.208360 L 3.199783 3.218600 L 3.198266 3.228544 L 3.195797 3.238140 L 3.192431 3.247343 L 3.188214 3.256099 L 3.183206 3.264339 L 3.183196 3.264356 L 3.183186 3.264368 L 3.177433 3.272065 L 3.170968 3.279177 L 3.163855 3.285641 L 3.156146 3.291407 L 3.147888 3.296424 L 3.139142 3.300637 L 3.139134 3.300641 L 3.139128 3.300642 L 3.129932 3.304009 L 3.120336 3.306476 L 3.110391 3.307994 L 3.100172 3.308509 L 3.100152 3.308510 L 1.698066 3.308510 L 1.698066 3.308496 L 1.675489 3.308496 L 1.655305 3.306461 L 1.636506 3.300625 L 1.619495 3.291390 L 1.604674 3.279162 L 1.592444 3.264339 L 1.583210 3.247328 L 1.577375 3.228529 L 1.575341 3.208346 L 1.577375 3.188162 L 1.583210 3.169363 L 1.592444 3.152352 L 1.604674 3.137529 L 1.619495 3.125300 L 1.636506 3.116067 L 1.655305 3.110231 L 1.675489 3.108197 L 2.040092 3.108197 Z M 2.000834 2.807753 L 1.993761 2.830537 L 1.985680 2.910708 L 1.993761 2.990878 L 1.999095 3.008059 L 1.872548 3.008059 L 1.872548 3.008047 L 1.501007 3.008047 L 1.480823 3.006012 L 1.462024 3.000176 L 1.445013 2.990943 L 1.430192 2.978714 L 1.417961 2.963892 L 1.408728 2.946880 L 1.402892 2.928081 L 1.400858 2.907899 L 1.402892 2.887715 L 1.408728 2.868916 L 1.417961 2.851904 L 1.430192 2.837082 L 1.445013 2.824853 L 1.462024 2.815618 L 1.480823 2.809783 L 1.501007 2.807749 Z M 3.274633 2.807758 L 3.284872 2.808275 L 3.294817 2.809793 L 3.304415 2.812259 L 3.313615 2.815627 L 3.322371 2.819845 L 3.330627 2.824861 L 3.338337 2.830627 L 3.345448 2.837090 L 3.351914 2.844203 L 3.357677 2.851913 L 3.362695 2.860171 L 3.366913 2.868925 L 3.370280 2.878127 L 3.372749 2.887725 L 3.374265 2.897669 L 3.374781 2.907888 L 3.374783 2.907908 L 3.374781 2.907929 L 3.374265 2.918149 L 3.372749 2.928092 L 3.370280 2.937690 L 3.366913 2.946891 L 3.362695 2.955647 L 3.357677 2.963904 L 3.351914 2.971612 L 3.345448 2.978726 L 3.338337 2.985189 L 3.330638 2.990947 L 3.330628 2.990954 L 3.330620 2.990960 L 3.322371 2.995971 L 3.313615 3.000188 L 3.304415 3.003557 L 3.294817 3.006024 L 3.284872 3.007542 L 3.274633 3.008059 L 2.767873 3.008059 L 2.773207 2.990878 L 2.781287 2.910708 L 2.773207 2.830537 L 2.766135 2.807758 Z M 2.383463 2.512905 L 2.303311 2.520986 L 2.228641 2.544165 L 2.161069 2.580840 L 2.102193 2.629419 L 2.053620 2.688291 L 2.040097 2.713206 L 1.997439 2.713206 L 1.997439 2.713197 L 1.376117 2.713197 L 1.355934 2.711164 L 1.337135 2.705328 L 1.320122 2.696093 L 1.305301 2.683864 L 1.293072 2.669042 L 1.283838 2.652032 L 1.278002 2.633232 L 1.275967 2.613048 L 1.278002 2.592865 L 1.283838 2.574066 L 1.293072 2.557053 L 1.305301 2.542232 L 1.320122 2.530003 L 1.337135 2.520770 L 1.355934 2.514934 L 1.376117 2.512899 Z M 3.409763 2.513421 L 3.419706 2.514939 L 3.429304 2.517406 L 3.438505 2.520776 L 3.447261 2.524993 L 3.455509 2.530004 L 3.455519 2.530008 L 3.455528 2.530018 L 3.463228 2.535774 L 3.470339 2.542238 L 3.476803 2.549349 L 3.482569 2.557060 L 3.487585 2.565318 L 3.491802 2.574071 L 3.495169 2.583274 L 3.497638 2.592872 L 3.499154 2.602814 L 3.499671 2.613034 L 3.499673 2.613055 L 3.499671 2.613074 L 3.499154 2.623295 L 3.497638 2.633238 L 3.495169 2.642837 L 3.491802 2.652039 L 3.487585 2.660793 L 3.482569 2.669050 L 3.476803 2.676760 L 3.470339 2.683873 L 3.463228 2.690336 L 3.455528 2.696093 L 3.455519 2.696102 L 3.455509 2.696106 L 3.447261 2.701117 L 3.438505 2.705335 L 3.429304 2.708704 L 3.419706 2.711171 L 3.409763 2.712688 L 3.399525 2.713206 L 2.726872 2.713206 L 2.713349 2.688291 L 2.664774 2.629419 L 2.605899 2.580840 L 2.538326 2.544165 L 2.463656 2.520986 L 2.383508 2.512905 L 3.399525 2.512905 Z M 2.392159 2.206855 L 3.499674 2.206855 L 3.509911 2.207371 L 3.519853 2.208889 L 3.519856 2.208889 L 3.519861 2.208890 L 3.529453 2.211356 L 3.538655 2.214725 L 3.547408 2.218943 L 3.555666 2.223959 L 3.563377 2.229724 L 3.570489 2.236188 L 3.576953 2.243300 L 3.582717 2.251011 L 3.587734 2.259268 L 3.591941 2.268005 L 3.591952 2.268022 L 3.591958 2.268040 L 3.595318 2.277223 L 3.597788 2.286821 L 3.599304 2.296764 L 3.599821 2.307004 L 3.599304 2.317245 L 3.597788 2.327188 L 3.595318 2.336786 L 3.591959 2.345963 L 3.591952 2.345989 L 3.591939 2.346013 L 3.587734 2.354743 L 3.582717 2.363001 L 3.576953 2.370710 L 3.570489 2.377822 L 3.563377 2.384286 L 3.555666 2.390052 L 3.547408 2.395068 L 3.538655 2.399284 L 3.529453 2.402654 L 3.519861 2.405120 L 3.519856 2.405121 L 3.519853 2.405121 L 3.509911 2.406639 L 3.499695 2.407154 L 3.499673 2.407156 L 2.097587 2.407156 L 2.097587 2.407153 L 1.275967 2.407153 L 1.255784 2.405117 L 1.236985 2.399282 L 1.219972 2.390047 L 1.205152 2.377818 L 1.192922 2.362996 L 1.183689 2.345985 L 1.177853 2.327185 L 1.175818 2.307003 L 1.177853 2.286819 L 1.183689 2.268020 L 1.192922 2.251008 L 1.205152 2.236186 L 1.219972 2.223957 L 1.236985 2.214724 L 1.255784 2.208888 L 1.275967 2.206854 Z M 3.585516 1.906919 L 3.595458 1.908437 L 3.605056 1.910905 L 3.614257 1.914273 L 3.623012 1.918489 L 3.631269 1.923506 L 3.638980 1.929272 L 3.646092 1.935736 L 3.652555 1.942848 L 3.658321 1.950556 L 3.663337 1.958815 L 3.667554 1.967569 L 3.670923 1.976771 L 3.673389 1.986370 L 3.674906 1.996312 L 3.675424 2.006553 L 3.674906 2.016792 L 3.673389 2.026737 L 3.670923 2.036335 L 3.667554 2.045536 L 3.663337 2.054291 L 3.658321 2.062547 L 3.652555 2.070258 L 3.646092 2.077371 L 3.638980 2.083834 L 3.631280 2.089591 L 3.631269 2.089600 L 3.631261 2.089605 L 3.623012 2.094616 L 3.614257 2.098833 L 3.605056 2.102202 L 3.595458 2.104669 L 3.585516 2.106185 L 3.575277 2.106704 L 1.200365 2.106704 L 1.180181 2.104669 L 1.161382 2.098833 L 1.144370 2.089600 L 1.129548 2.077371 L 1.117319 2.062549 L 1.108085 2.045537 L 1.102250 2.026738 L 1.100215 2.006555 L 1.102250 1.986371 L 1.108085 1.967572 L 1.117319 1.950561 L 1.129548 1.935738 L 1.144370 1.923510 L 1.161382 1.914275 L 1.180181 1.908439 L 1.200365 1.906405 L 2.053122 1.906405 L 2.062293 1.923299 L 2.110868 1.982171 L 2.169744 2.030749 L 2.237315 2.067425 L 2.311985 2.090603 L 2.392156 2.098687 L 2.472327 2.090603 L 2.547000 2.067425 L 2.614572 2.030749 L 2.673444 1.982171 L 2.722023 1.923299 L 2.731193 1.906402 L 3.575277 1.906402 Z M 1.997436 1.670305 L 1.994355 1.700882 L 2.002436 1.781053 L 2.010258 1.806257 L 1.154248 1.806257 L 1.134064 1.804222 L 1.115265 1.798386 L 1.098253 1.789152 L 1.083432 1.776922 L 1.071202 1.762101 L 1.061969 1.745090 L 1.056134 1.726291 L 1.054099 1.706108 L 1.056134 1.685923 L 1.061969 1.667124 L 1.071202 1.650112 L 1.083432 1.635291 L 1.098253 1.623061 L 1.115265 1.613828 L 1.134064 1.607992 L 1.154248 1.605958 L 1.997436 1.605958 Z M 3.631632 1.606468 L 3.641576 1.607985 L 3.651173 1.610454 L 3.660375 1.613822 L 3.669128 1.618038 L 3.677387 1.623055 L 3.685096 1.628820 L 3.692207 1.635284 L 3.698672 1.642395 L 3.704437 1.650106 L 3.709454 1.658365 L 3.713671 1.667118 L 3.717039 1.676319 L 3.719507 1.685918 L 3.721023 1.695861 L 3.721540 1.706102 L 3.721023 1.716341 L 3.719507 1.726286 L 3.717039 1.735884 L 3.713671 1.745085 L 3.709454 1.753839 L 3.704437 1.762096 L 3.698672 1.769806 L 3.692207 1.776918 L 3.685096 1.783383 L 3.677387 1.789148 L 3.669128 1.794165 L 3.660375 1.798382 L 3.651173 1.801748 L 3.641576 1.804218 L 3.631632 1.805734 L 3.621393 1.806253 L 2.774055 1.806253 L 2.781877 1.781053 L 2.789961 1.700882 L 2.789961 1.605951 L 3.621393 1.605951 Z M 1.997436 1.503393 L 1.119611 1.503393 L 1.099428 1.501357 L 1.080628 1.495522 L 1.063616 1.486287 L 1.048794 1.474058 L 1.036566 1.459237 L 1.027332 1.442226 L 1.021496 1.423426 L 1.019461 1.403243 L 1.021496 1.383059 L 1.027332 1.364260 L 1.036566 1.347248 L 1.048794 1.332426 L 1.063616 1.320197 L 1.080628 1.310964 L 1.099428 1.305128 L 1.119611 1.303094 L 1.997436 1.303094 Z M 3.666270 1.303598 L 3.676213 1.305118 L 3.685811 1.307585 L 3.695005 1.310952 L 3.695012 1.310953 L 3.695020 1.310958 L 3.703765 1.315170 L 3.712024 1.320186 L 3.719733 1.325952 L 3.726845 1.332416 L 3.733309 1.339528 L 3.739075 1.347239 L 3.744091 1.355496 L 3.748300 1.364235 L 3.748308 1.364251 L 3.748314 1.364270 L 3.751676 1.373451 L 3.754144 1.383049 L 3.755662 1.392994 L 3.756178 1.403233 L 3.755662 1.413474 L 3.754144 1.423417 L 3.751676 1.433015 L 3.748314 1.442199 L 3.748308 1.442217 L 3.748300 1.442232 L 3.744091 1.450971 L 3.739075 1.459229 L 3.733309 1.466938 L 3.726845 1.474051 L 3.719733 1.480514 L 3.712024 1.486280 L 3.703765 1.491296 L 3.695020 1.495510 L 3.695012 1.495513 L 3.695005 1.495514 L 3.685811 1.498882 L 3.676213 1.501349 L 3.666270 1.502867 L 3.656029 1.503384 L 2.789961 1.503384 L 2.789961 1.303083 L 3.656029 1.303083 Z M 1.997436 1.208230 L 1.109714 1.208230 L 1.089530 1.206196 L 1.070731 1.200360 L 1.053720 1.191126 L 1.038899 1.178897 L 1.026668 1.164074 L 1.017435 1.147063 L 1.011599 1.128264 L 1.009565 1.108080 L 1.011599 1.087897 L 1.017435 1.069098 L 1.026668 1.052087 L 1.038899 1.037264 L 1.053720 1.025035 L 1.070731 1.015802 L 1.089530 1.009966 L 1.109714 1.007931 L 1.997436 1.007931 Z M 3.676165 1.008433 L 3.686110 1.009952 L 3.695708 1.012419 L 3.704908 1.015788 L 3.713662 1.020005 L 3.721920 1.025021 L 3.729629 1.030787 L 3.736741 1.037251 L 3.743205 1.044363 L 3.748971 1.052072 L 3.753988 1.060330 L 3.758205 1.069084 L 3.761572 1.078286 L 3.764040 1.087883 L 3.765558 1.097827 L 3.766074 1.108068 L 3.765558 1.118307 L 3.764040 1.128251 L 3.761572 1.137850 L 3.758205 1.147051 L 3.753988 1.155805 L 3.748971 1.164062 L 3.743205 1.171772 L 3.736741 1.178884 L 3.729629 1.185349 L 3.721920 1.191114 L 3.713662 1.196130 L 3.704908 1.200348 L 3.695708 1.203714 L 3.686110 1.206184 L 3.676165 1.207700 L 3.665946 1.208217 L 3.665924 1.208218 L 2.789961 1.208218 L 2.789961 1.007917 L 3.665924 1.007917 Z" transform="scale(72.000000,72.000000) translate(-0.166667,0.180556)" fill="#ff9d16" opacity="1.000000"></path>
    </g>
</svg>