<?xml version="1.0" encoding="UTF-8" standalone="yes"?>
<!DOCTYPE svg PUBLIC "-//W3C//DTD SVG 1.1//EN" "http://www.w3.org/Graphics/SVG/1.1/DTD/svg11.dtd">

<svg width="321" height="358" viewBox="0 0 321 358" xmlns="http://www.w3.org/2000/svg" xmlns:xlink="http://www.w3.org/1999/xlink" version="1.1" baseProfile="full">
    <g transform="scale(1,-1) translate(0,-358)">
        <path d="M 3.195093 1.009675 L 3.196200 1.009681 L 3.197306 1.009689 L 3.198411 1.009700 L 3.199517 1.009714 L 3.200622 1.009731 L 3.201728 1.009751 L 3.202833 1.009774 L 3.203939 1.009799 L 3.205044 1.009826 L 3.206150 1.009857 L 3.207256 1.009890 L 3.208361 1.009926 L 3.209465 1.009965 L 3.210571 1.010007 L 3.211676 1.010051 L 3.212781 1.010100 L 3.213885 1.010150 L 3.214990 1.010203 L 3.216094 1.010258 L 3.217199 1.010317 L 3.218303 1.010378 L 3.219407 1.010442 L 3.220511 1.010508 L 3.221614 1.010578 L 3.222718 1.010650 L 3.223821 1.010725 L 3.224924 1.010803 L 3.226026 1.010885 L 3.227129 1.010968 L 3.228232 1.011054 L 3.229335 1.011143 L 3.230436 1.011235 L 3.231539 1.011329 L 3.232640 1.011426 L 3.233742 1.011526 L 3.234842 1.011629 L 3.235943 1.011735 L 3.237043 1.011843 L 3.238144 1.011954 L 3.239244 1.012068 L 3.240343 1.012185 L 3.241443 1.012304 L 3.242542 1.012425 L 3.243640 1.012550 L 3.244739 1.012678 L 3.245838 1.012808 L 3.246935 1.012942 L 3.248032 1.013078 L 3.249129 1.013217 L 3.250226 1.013358 L 3.251322 1.013501 L 3.252419 1.013649 L 3.253514 1.013799 L 3.254610 1.013951 L 3.255704 1.014106 L 3.256799 1.014264 L 3.257893 1.014425 L 3.258988 1.014589 L 3.260081 1.014754 L 3.261174 1.014924 L 3.262265 1.015094 L 3.263357 1.015269 L 3.264449 1.015447 L 3.265540 1.015626 L 3.266631 1.015810 L 3.267721 1.015994 L 3.268811 1.016183 L 3.269900 1.016374 L 3.270989 1.016567 L 3.272076 1.016764 L 3.273165 1.016963 L 3.274253 1.017164 L 3.275339 1.017369 L 3.276425 1.017576 L 3.277511 1.017786 L 3.278596 1.017999 L 3.279681 1.018214 L 3.280765 1.018432 L 3.281849 1.018653 L 3.282932 1.018876 L 3.284014 1.019103 L 3.285096 1.019332 L 3.286176 1.019564 L 3.287257 1.019799 L 3.288338 1.020036 L 3.289417 1.020275 L 3.290496 1.020518 L 3.291575 1.020764 L 3.292653 1.021011 L 3.293729 1.021263 L 3.294806 1.021515 L 3.295882 1.021772 L 3.296957 1.022031 L 3.298031 1.022292 L 3.299104 1.022557 L 3.300178 1.022824 L 3.301250 1.023093 L 3.302322 1.023365 L 3.303393 1.023640 L 3.304464 1.023918 L 3.305533 1.024199 L 3.306603 1.024482 L 3.307671 1.024767 L 3.308738 1.025056 L 3.309806 1.025347 L 3.310871 1.025640 L 3.311936 1.025938 L 3.313001 1.026236 L 3.314065 1.026538 L 3.315128 1.026843 L 3.316190 1.027150 L 3.317251 1.027460 L 3.318313 1.027772 L 3.319372 1.028088 L 3.320432 1.028406 L 3.321490 1.028725 L 3.322547 1.029049 L 3.323604 1.029375 L 3.324661 1.029703 L 3.325715 1.030033 L 3.326769 1.030368 L 3.327824 1.030704 L 3.328876 1.031043 L 3.329928 1.031385 L 3.330978 1.031729 L 3.332028 1.032076 L 3.333078 1.032426 L 3.334126 1.032778 L 3.335174 1.033133 L 3.336219 1.033490 L 3.337265 1.033850 L 3.338310 1.034214 L 3.339354 1.034579 L 3.340396 1.034947 L 3.341439 1.035317 L 3.342479 1.035690 L 3.343519 1.036067 L 3.344558 1.036444 L 3.345596 1.036826 L 3.346633 1.037210 L 3.347669 1.037596 L 3.348706 1.037985 L 3.349739 1.038376 L 3.350772 1.038771 L 3.351804 1.039167 L 3.352836 1.039567 L 3.353867 1.039968 L 3.354896 1.040372 L 3.355924 1.040779 L 3.356951 1.041189 L 3.357976 1.041601 L 3.359001 1.042015 L 3.360026 1.042433 L 3.361049 1.042853 L 3.362071 1.043275 L 3.363092 1.043700 L 3.364113 1.044128 L 3.365131 1.044558 L 3.366149 1.044992 L 3.367165 1.045426 L 3.368181 1.045864 L 3.369194 1.046304 L 3.370208 1.046747 L 3.371219 1.047193 L 3.372231 1.047640 L 3.373242 1.048092 L 3.374250 1.048544 L 3.375257 1.049000 L 3.376264 1.049458 L 3.377269 1.049919 L 3.378274 1.050382 L 3.379276 1.050847 L 3.380278 1.051317 L 3.381279 1.051788 L 3.382278 1.052260 L 3.383276 1.052736 L 3.384274 1.053214 L 3.385269 1.053694 L 3.386264 1.054178 L 3.387257 1.054664 L 3.388250 1.055153 L 3.389240 1.055643 L 3.390231 1.056136 L 3.391219 1.056632 L 3.392207 1.057131 L 3.393192 1.057631 L 3.394176 1.058133 L 3.395161 1.058640 L 3.396143 1.059147 L 3.397124 1.059658 L 3.398103 1.060171 L 3.399082 1.060686 L 3.400058 1.061204 L 3.401035 1.061725 L 3.402008 1.062249 L 3.402982 1.062774 L 3.403954 1.063301 L 3.404924 1.063831 L 3.405893 1.064364 L 3.406861 1.064899 L 3.407828 1.065436 L 3.408793 1.065976 L 3.409757 1.066518 L 3.411679 1.067610 L 3.412639 1.068160 L 3.413494 1.068653 L 5.155338 2.074306 L 5.156294 2.074860 L 5.157250 2.075415 L 5.158204 2.075975 L 5.159157 2.076536 L 5.160108 2.077100 L 5.161058 2.077665 L 5.162007 2.078235 L 5.162954 2.078806 L 5.163899 2.079378 L 5.164843 2.079954 L 5.165786 2.080532 L 5.166728 2.081113 L 5.167668 2.081694 L 5.168606 2.082281 L 5.169543 2.082868 L 5.170478 2.083457 L 5.171413 2.084049 L 5.172344 2.084644 L 5.173275 2.085240 L 5.174206 2.085840 L 5.175133 2.086442 L 5.176060 2.087044 L 5.176985 2.087651 L 5.177908 2.088260 L 5.178829 2.088871 L 5.179750 2.089483 L 5.180668 2.090099 L 5.181586 2.090717 L 5.182501 2.091336 L 5.183415 2.091958 L 5.184328 2.092583 L 5.185239 2.093210 L 5.186149 2.093839 L 5.187057 2.094471 L 5.187963 2.095104 L 5.188868 2.095740 L 5.189771 2.096379 L 5.190672 2.097019 L 5.191572 2.097663 L 5.192469 2.098307 L 5.193367 2.098954 L 5.194261 2.099604 L 5.195154 2.100256 L 5.196046 2.100910 L 5.196936 2.101567 L 5.197825 2.102225 L 5.198711 2.102886 L 5.199597 2.103549 L 5.200481 2.104214 L 5.201361 2.104882 L 5.202242 2.105551 L 5.203121 2.106222 L 5.203997 2.106897 L 5.204872 2.107574 L 5.205744 2.108251 L 5.206617 2.108932 L 5.207486 2.109615 L 5.208354 2.110300 L 5.209221 2.110988 L 5.210086 2.111676 L 5.210949 2.112368 L 5.211810 2.113063 L 5.212669 2.113758 L 5.213526 2.114456 L 5.214383 2.115156 L 5.215238 2.115858 L 5.216089 2.116563 L 5.216940 2.117269 L 5.217789 2.117978 L 5.218636 2.118689 L 5.219482 2.119401 L 5.220325 2.120117 L 5.221167 2.120835 L 5.222007 2.121554 L 5.222844 2.122275 L 5.223681 2.122999 L 5.224515 2.123724 L 5.225349 2.124451 L 5.226179 2.125182 L 5.227008 2.125914 L 5.227835 2.126647 L 5.228660 2.127383 L 5.229483 2.128122 L 5.230306 2.128863 L 5.231125 2.129604 L 5.231943 2.130349 L 5.232758 2.131094 L 5.233572 2.131843 L 5.234385 2.132594 L 5.235196 2.133346 L 5.236004 2.134101 L 5.236810 2.134857 L 5.237615 2.135617 L 5.238418 2.136376 L 5.239218 2.137139 L 5.240018 2.137904 L 5.240814 2.138671 L 5.241610 2.139439 L 5.242403 2.140210 L 5.243193 2.140982 L 5.243983 2.141757 L 5.244771 2.142533 L 5.245556 2.143313 L 5.246339 2.144093 L 5.247121 2.144875 L 5.247900 2.145660 L 5.248678 2.146446 L 5.249453 2.147235 L 5.250226 2.148025 L 5.250997 2.148817 L 5.251767 2.149611 L 5.252535 2.150407 L 5.253300 2.151206 L 5.254064 2.152006 L 5.254825 2.152807 L 5.255585 2.153611 L 5.256342 2.154417 L 5.257097 2.155224 L 5.257851 2.156033 L 5.258603 2.156844 L 5.259351 2.157658 L 5.260099 2.158474 L 5.260844 2.159290 L 5.261588 2.160110 L 5.262329 2.160931 L 5.263068 2.161753 L 5.263804 2.162576 L 5.264540 2.163403 L 5.265272 2.164232 L 5.266003 2.165061 L 5.266732 2.165893 L 5.267458 2.166726 L 5.268183 2.167563 L 5.268906 2.168400 L 5.269625 2.169239 L 5.270344 2.170079 L 5.271060 2.170922 L 5.271774 2.171767 L 5.272486 2.172613 L 5.273196 2.173461 L 5.273903 2.174311 L 5.274608 2.175163 L 5.275311 2.176017 L 5.276013 2.176871 L 5.276711 2.177728 L 5.277408 2.178588 L 5.278103 2.179447 L 5.278796 2.180310 L 5.279486 2.181174 L 5.280174 2.182039 L 5.280860 2.182907 L 5.281544 2.183775 L 5.282225 2.184646 L 5.282904 2.185519 L 5.283582 2.186393 L 5.284257 2.187269 L 5.284931 2.188146 L 5.286269 2.189907 L 5.286935 2.190789 L 5.287599 2.191674 L 5.288261 2.192560 L 5.288921 2.193447 L 5.289578 2.194336 L 5.290233 2.195228 L 5.290886 2.196121 L 5.291536 2.197014 L 5.292185 2.197910 L 5.292831 2.198808 L 5.293475 2.199707 L 5.294115 2.200607 L 5.294756 2.201510 L 5.295392 2.202414 L 5.296026 2.203319 L 5.296660 2.204226 L 5.297290 2.205135 L 5.297918 2.206046 L 5.298543 2.206957 L 5.299167 2.207871 L 5.299788 2.208786 L 5.300407 2.209703 L 5.301022 2.210621 L 5.301638 2.211540 L 5.302249 2.212461 L 5.302858 2.213383 L 5.303465 2.214308 L 5.304071 2.215233 L 5.304672 2.216161 L 5.305272 2.217090 L 5.305871 2.218021 L 5.306467 2.218951 L 5.307060 2.219885 L 5.307650 2.220821 L 5.308239 2.221757 L 5.308825 2.222694 L 5.309408 2.223633 L 5.309990 2.224574 L 5.310569 2.225517 L 5.311146 2.226460 L 5.311719 2.227404 L 5.312292 2.228351 L 5.312861 2.229299 L 5.313429 2.230249 L 5.313993 2.231199 L 5.314556 2.232151 L 5.315115 2.233104 L 5.315674 2.234060 L 5.316229 2.235017 L 5.316782 2.235974 L 5.317332 2.236933 L 5.317879 2.237893 L 5.318425 2.238856 L 5.318968 2.239819 L 5.319510 2.240783 L 5.320047 2.241750 L 5.320583 2.242717 L 5.321117 2.243686 L 5.321647 2.244656 L 5.322176 2.245626 L 5.322703 2.246600 L 5.323226 2.247574 L 5.323747 2.248549 L 5.324267 2.249525 L 5.324782 2.250503 L 5.325296 2.251482 L 5.325808 2.252463 L 5.326317 2.253444 L 5.326824 2.254428 L 5.327829 2.256397 L 5.328328 2.257385 L 5.328824 2.258372 L 5.329318 2.259363 L 5.329810 2.260353 L 5.330299 2.261344 L 5.330786 2.262338 L 5.331269 2.263332 L 5.331751 2.264326 L 5.332231 2.265324 L 5.332707 2.266321 L 5.333181 2.267321 L 5.333653 2.268321 L 5.334122 2.269322 L 5.334589 2.270325 L 5.335053 2.271329 L 5.335514 2.272333 L 5.335974 2.273339 L 5.336429 2.274347 L 5.336883 2.275356 L 5.337335 2.276365 L 5.337783 2.277375 L 5.338231 2.278388 L 5.338674 2.279400 L 5.339115 2.280414 L 5.339554 2.281429 L 5.339990 2.282446 L 5.340424 2.283463 L 5.340854 2.284481 L 5.341283 2.285500 L 5.341708 2.286521 L 5.342132 2.287543 L 5.342553 2.288565 L 5.342971 2.289589 L 5.343386 2.290614 L 5.343800 2.291639 L 5.344210 2.292667 L 5.344618 2.293694 L 5.345024 2.294724 L 5.345426 2.295753 L 5.345826 2.296783 L 5.346224 2.297815 L 5.346618 2.298849 L 5.347011 2.299883 L 5.347401 2.300918 L 5.347788 2.301953 L 5.348172 2.302990 L 5.348554 2.304028 L 5.348933 2.305067 L 5.349311 2.306107 L 5.349685 2.307147 L 5.350056 2.308189 L 5.350425 2.309231 L 5.350792 2.310275 L 5.351156 2.311319 L 5.351515 2.312364 L 5.351875 2.313410 L 5.352231 2.314457 L 5.352583 2.315506 L 5.352933 2.316554 L 5.353282 2.317604 L 5.353626 2.318654 L 5.353969 2.319706 L 5.354310 2.320758 L 5.354647 2.321811 L 5.354982 2.322865 L 5.355314 2.323919 L 5.355643 2.324976 L 5.355969 2.326032 L 5.356293 2.327089 L 5.356615 2.328147 L 5.356933 2.329207 L 5.357250 2.330267 L 5.357563 2.331326 L 5.357874 2.332388 L 5.358182 2.333450 L 5.358488 2.334513 L 5.358790 2.335576 L 5.359090 2.336640 L 5.359388 2.337706 L 5.359682 2.338772 L 5.359974 2.339839 L 5.360264 2.340906 L 5.360550 2.341974 L 5.360833 2.343043 L 5.361115 2.344113 L 5.361394 2.345182 L 5.361669 2.346253 L 5.361943 2.347325 L 5.362214 2.348397 L 5.362482 2.349469 L 5.362747 2.350543 L 5.363010 2.351618 L 5.363269 2.352693 L 5.363526 2.353768 L 5.363781 2.354844 L 5.364032 2.355921 L 5.364281 2.356999 L 5.364526 2.358076 L 5.364771 2.359156 L 5.365011 2.360235 L 5.365250 2.361314 L 5.365485 2.362394 L 5.365718 2.363476 L 5.365947 2.364558 L 5.366175 2.365640 L 5.366399 2.366722 L 5.366621 2.367806 L 5.366840 2.368890 L 5.367057 2.369975 L 5.367269 2.371060 L 5.367481 2.372144 L 5.367689 2.373231 L 5.367894 2.374318 L 5.368097 2.375406 L 5.368297 2.376493 L 5.368494 2.377581 L 5.368689 2.378669 L 5.368881 2.379758 L 5.369069 2.380847 L 5.369256 2.381938 L 5.369440 2.383028 L 5.369621 2.384119 L 5.369799 2.385211 L 5.369974 2.386303 L 5.370147 2.387394 L 5.370317 2.388488 L 5.370483 2.389581 L 5.370649 2.390674 L 5.370810 2.391768 L 5.370968 2.392863 L 5.371125 2.393957 L 5.371278 2.395053 L 5.371429 2.396149 L 5.371576 2.397244 L 5.371722 2.398340 L 5.371864 2.399438 L 5.372004 2.400533 L 5.372140 2.401631 L 5.372275 2.402729 L 5.372406 2.403826 L 5.372535 2.404925 L 5.372660 2.406024 L 5.372783 2.407122 L 5.372904 2.408222 L 5.373021 2.409322 L 5.373136 2.410422 L 5.373247 2.411522 L 5.373357 2.412622 L 5.373464 2.413722 L 5.373567 2.414824 L 5.373668 2.415925 L 5.373767 2.417026 L 5.373863 2.418128 L 5.373954 2.419231 L 5.374044 2.420332 L 5.374132 2.421435 L 5.374215 2.422538 L 5.374297 2.423640 L 5.374376 2.424743 L 5.374453 2.425847 L 5.374525 2.426950 L 5.374596 2.428054 L 5.374664 2.429157 L 5.374729 2.430261 L 5.374790 2.431365 L 5.374850 2.432469 L 5.374907 2.433574 L 5.374961 2.434679 L 5.375011 2.435783 L 5.375060 2.436888 L 5.375106 2.437993 L 5.375149 2.439097 L 5.375189 2.440203 L 5.375225 2.441308 L 5.375260 2.442414 L 5.375292 2.443519 L 5.375321 2.444625 L 5.375346 2.445731 L 5.375369 2.446836 L 5.375390 2.447942 L 5.375408 2.449047 L 5.375424 2.450153 L 5.375435 2.451258 L 5.375444 2.452364 L 5.375451 2.453469 L 5.375456 2.454576 L 5.375457 2.455563 L 5.375457 4.466871 L 5.375456 4.467976 L 5.375451 4.469082 L 5.375444 4.470189 L 5.375435 4.471294 L 5.375422 4.472400 L 5.375407 4.473506 L 5.375389 4.474611 L 5.375368 4.475717 L 5.375344 4.476822 L 5.375318 4.477928 L 5.375289 4.479033 L 5.375257 4.480139 L 5.375222 4.481244 L 5.375185 4.482350 L 5.375144 4.483454 L 5.375101 4.484560 L 5.375056 4.485664 L 5.375007 4.486769 L 5.374956 4.487874 L 5.374901 4.488978 L 5.374844 4.490083 L 5.374785 4.491188 L 5.374722 4.492292 L 5.374657 4.493394 L 5.374589 4.494499 L 5.374518 4.495603 L 5.374444 4.496706 L 5.374368 4.497808 L 5.374289 4.498913 L 5.374207 4.500015 L 5.374122 4.501117 L 5.374035 4.502219 L 5.373944 4.503322 L 5.373851 4.504424 L 5.373756 4.505525 L 5.373657 4.506626 L 5.373557 4.507728 L 5.373453 4.508829 L 5.373346 4.509929 L 5.373236 4.511031 L 5.373124 4.512131 L 5.373008 4.513231 L 5.372890 4.514329 L 5.372769 4.515429 L 5.372647 4.516528 L 5.372521 4.517626 L 5.372392 4.518725 L 5.372260 4.519822 L 5.372126 4.520921 L 5.371989 4.522018 L 5.371849 4.523114 L 5.371706 4.524211 L 5.371561 4.525307 L 5.371413 4.526403 L 5.371261 4.527499 L 5.371108 4.528594 L 5.370951 4.529689 L 5.370792 4.530783 L 5.370631 4.531876 L 5.370465 4.532971 L 5.370299 4.534064 L 5.370128 4.535156 L 5.369956 4.536249 L 5.369779 4.537340 L 5.369601 4.538432 L 5.369419 4.539522 L 5.369236 4.540613 L 5.369050 4.541703 L 5.368860 4.542793 L 5.368668 4.543882 L 5.368474 4.544969 L 5.368276 4.546058 L 5.368075 4.547146 L 5.367872 4.548232 L 5.367667 4.549319 L 5.367458 4.550406 L 5.367247 4.551490 L 5.367033 4.552575 L 5.366817 4.553660 L 5.366597 4.554744 L 5.366375 4.555828 L 5.366150 4.556910 L 5.365922 4.557992 L 5.365693 4.559074 L 5.365460 4.560154 L 5.365224 4.561235 L 5.364986 4.562315 L 5.364744 4.563394 L 5.364500 4.564472 L 5.364254 4.565551 L 5.364006 4.566628 L 5.363753 4.567706 L 5.363499 4.568781 L 5.363240 4.569857 L 5.362981 4.570932 L 5.362718 4.572006 L 5.362453 4.573079 L 5.362185 4.574151 L 5.361914 4.575224 L 5.361640 4.576296 L 5.361364 4.577367 L 5.361085 4.578436 L 5.360804 4.579506 L 5.360519 4.580575 L 5.360232 4.581643 L 5.359943 4.582710 L 5.359650 4.583776 L 5.359356 4.584842 L 5.359058 4.585907 L 5.358757 4.586971 L 5.358454 4.588035 L 5.358149 4.589097 L 5.357840 4.590160 L 5.357529 4.591221 L 5.357215 4.592281 L 5.356899 4.593340 L 5.356581 4.594400 L 5.356258 4.595458 L 5.355935 4.596515 L 5.355607 4.597571 L 5.355278 4.598626 L 5.354946 4.599682 L 5.354610 4.600736 L 5.354272 4.601789 L 5.353932 4.602840 L 5.353590 4.603892 L 5.353244 4.604943 L 5.352896 4.605992 L 5.352546 4.607040 L 5.352192 4.608089 L 5.351836 4.609136 L 5.351478 4.610182 L 5.351115 4.611226 L 5.350751 4.612271 L 5.350385 4.613314 L 5.350017 4.614357 L 5.349644 4.615399 L 5.349269 4.616439 L 5.348893 4.617479 L 5.348514 4.618517 L 5.348131 4.619554 L 5.347746 4.620592 L 5.347358 4.621628 L 5.346969 4.622663 L 5.346576 4.623696 L 5.346181 4.624729 L 5.345783 4.625761 L 5.345383 4.626792 L 5.344979 4.627821 L 5.344574 4.628850 L 5.344167 4.629878 L 5.343756 4.630904 L 5.343342 4.631931 L 5.342926 4.632954 L 5.342507 4.633978 L 5.342086 4.635001 L 5.341663 4.636022 L 5.341236 4.637043 L 5.340808 4.638063 L 5.340376 4.639081 L 5.339943 4.640097 L 5.339507 4.641114 L 5.339068 4.642129 L 5.338626 4.643143 L 5.338182 4.644156 L 5.337735 4.645167 L 5.337286 4.646178 L 5.336835 4.647188 L 5.336381 4.648194 L 5.335924 4.649203 L 5.335464 4.650208 L 5.335003 4.651213 L 5.334539 4.652217 L 5.334071 4.653219 L 5.333603 4.654221 L 5.333131 4.655221 L 5.332656 4.656219 L 5.332179 4.657217 L 5.331700 4.658214 L 5.331218 4.659208 L 5.330733 4.660203 L 5.330246 4.661196 L 5.329757 4.662188 L 5.329265 4.663178 L 5.328771 4.664167 L 5.328274 4.665156 L 5.327775 4.666142 L 5.327272 4.667128 L 5.326768 4.668111 L 5.326263 4.669094 L 5.325753 4.670076 L 5.325242 4.671057 L 5.324726 4.672036 L 5.324210 4.673014 L 5.323692 4.673990 L 5.323169 4.674965 L 5.322646 4.675939 L 5.322119 4.676911 L 5.321590 4.677882 L 5.321060 4.678853 L 5.320526 4.679821 L 5.319451 4.681754 L 5.318910 4.682718 L 5.318367 4.683682 L 5.317821 4.684643 L 5.317272 4.685604 L 5.316722 4.686563 L 5.316169 4.687521 L 5.315614 4.688476 L 5.315056 4.689432 L 5.314496 4.690385 L 5.313933 4.691336 L 5.313368 4.692288 L 5.312800 4.693236 L 5.312231 4.694185 L 5.311658 4.695131 L 5.311083 4.696075 L 5.310507 4.697019 L 5.309928 4.697961 L 5.309346 4.698901 L 5.308761 4.699840 L 5.308175 4.700778 L 5.307586 4.701714 L 5.306996 4.702649 L 5.306403 4.703582 L 5.305807 4.704514 L 5.305208 4.705443 L 5.304608 4.706372 L 5.304006 4.707299 L 5.303400 4.708225 L 5.302793 4.709149 L 5.302183 4.710071 L 5.301571 4.710993 L 5.300957 4.711913 L 5.300340 4.712831 L 5.299721 4.713746 L 5.299100 4.714661 L 5.298476 4.715575 L 5.297850 4.716486 L 5.297222 4.717396 L 5.296592 4.718304 L 5.295958 4.719211 L 5.295324 4.720117 L 5.294686 4.721021 L 5.294047 4.721922 L 5.293406 4.722824 L 5.292761 4.723722 L 5.292115 4.724619 L 5.291467 4.725515 L 5.290815 4.726410 L 5.290163 4.727301 L 5.289507 4.728193 L 5.288850 4.729082 L 5.288190 4.729969 L 5.287528 4.730856 L 5.286864 4.731739 L 5.286197 4.732622 L 5.285528 4.733503 L 5.284857 4.734382 L 5.284185 4.735258 L 5.283510 4.736135 L 5.282832 4.737008 L 5.282153 4.737881 L 5.281471 4.738751 L 5.280786 4.739621 L 5.280100 4.740488 L 5.279411 4.741353 L 5.278721 4.742217 L 5.278028 4.743079 L 5.277333 4.743939 L 5.276636 4.744797 L 5.275938 4.745654 L 5.275236 4.746510 L 5.274532 4.747363 L 5.273826 4.748214 L 5.273119 4.749064 L 5.272408 4.749911 L 5.271697 4.750757 L 5.270983 4.751601 L 5.270267 4.752444 L 5.269549 4.753285 L 5.268828 4.754124 L 5.268106 4.754961 L 5.267381 4.755796 L 5.266654 4.756629 L 5.265925 4.757461 L 5.265193 4.758292 L 5.264461 4.759119 L 5.263725 4.759946 L 5.262989 4.760769 L 5.262249 4.761592 L 5.261507 4.762413 L 5.260764 4.763231 L 5.260018 4.764049 L 5.259271 4.764863 L 5.258522 4.765676 L 5.257769 4.766488 L 5.257017 4.767296 L 5.256261 4.768104 L 5.255503 4.768910 L 5.254743 4.769713 L 5.253982 4.770514 L 5.253218 4.771314 L 5.252453 4.772113 L 5.251685 4.772908 L 5.250915 4.773701 L 5.250143 4.774494 L 5.249369 4.775285 L 5.248593 4.776072 L 5.247815 4.776858 L 5.247036 4.777643 L 5.246254 4.778425 L 5.245471 4.779206 L 5.244686 4.779983 L 5.243899 4.780760 L 5.243108 4.781535 L 5.242317 4.782307 L 5.241524 4.783078 L 5.240729 4.783846 L 5.239932 4.784613 L 5.239132 4.785376 L 5.238332 4.786139 L 5.237528 4.786899 L 5.236724 4.787657 L 5.235917 4.788414 L 5.235108 4.789168 L 5.234297 4.789921 L 5.233485 4.790671 L 5.232671 4.791419 L 5.231854 4.792165 L 5.231036 4.792910 L 5.230217 4.793651 L 5.229394 4.794392 L 5.228571 4.795129 L 5.227746 4.795865 L 5.226918 4.796599 L 5.226089 4.797331 L 5.225258 4.798060 L 5.224425 4.798788 L 5.223592 4.799513 L 5.222754 4.800236 L 5.221917 4.800957 L 5.221076 4.801676 L 5.220235 4.802393 L 5.219390 4.803108 L 5.218544 4.803821 L 5.217697 4.804532 L 5.216849 4.805240 L 5.215997 4.805947 L 5.215146 4.806651 L 5.214290 4.807353 L 5.213435 4.808053 L 5.212576 4.808750 L 5.211717 4.809446 L 5.210856 4.810140 L 5.209993 4.810831 L 5.209128 4.811521 L 5.208261 4.812207 L 5.207393 4.812892 L 5.206522 4.813575 L 5.205651 4.814256 L 5.204778 4.814933 L 5.203903 4.815610 L 5.203025 4.816283 L 5.202147 4.816954 L 5.201267 4.817624 L 5.200385 4.818292 L 5.199501 4.818956 L 5.198617 4.819619 L 5.197729 4.820279 L 5.196840 4.820938 L 5.195950 4.821593 L 5.195058 4.822247 L 5.194165 4.822899 L 5.193269 4.823549 L 5.192374 4.824196 L 5.191475 4.824840 L 5.190575 4.825483 L 5.189674 4.826124 L 5.188769 4.826761 L 5.187865 4.827397 L 5.186958 4.828031 L 5.186051 4.828661 L 5.185142 4.829290 L 5.184231 4.829917 L 5.183317 4.830542 L 5.182403 4.831164 L 5.181488 4.831783 L 5.180569 4.832401 L 5.179651 4.833017 L 5.178731 4.833629 L 5.177808 4.834239 L 5.176885 4.834847 L 5.175960 4.835454 L 5.175033 4.836057 L 5.174106 4.836658 L 5.173175 4.837257 L 5.172244 4.837854 L 5.171311 4.838449 L 5.170378 4.839040 L 5.169442 4.839629 L 5.168504 4.840217 L 5.167567 4.840801 L 5.166626 4.841383 L 5.165685 4.841964 L 5.164742 4.842542 L 5.163797 4.843117 L 5.162851 4.843690 L 5.161904 4.844261 L 5.160956 4.844829 L 5.160006 4.845394 L 5.159054 4.845958 L 5.158101 4.846519 L 5.157147 4.847078 L 5.156192 4.847635 L 5.155338 4.848128 L 3.413494 5.853781 L 3.412536 5.854333 L 3.411576 5.854882 L 3.410615 5.855429 L 3.409653 5.855974 L 3.408689 5.856515 L 3.407724 5.857056 L 3.406757 5.857593 L 3.405789 5.858128 L 3.404819 5.858660 L 3.403849 5.859189 L 3.402876 5.859717 L 3.401904 5.860242 L 3.400929 5.860765 L 3.399953 5.861285 L 3.398976 5.861803 L 3.397997 5.862318 L 3.397018 5.862831 L 3.396036 5.863340 L 3.395054 5.863849 L 3.394071 5.864354 L 3.393086 5.864857 L 3.392100 5.865357 L 3.391113 5.865856 L 3.390124 5.866350 L 3.389133 5.866843 L 3.388143 5.867335 L 3.387150 5.867822 L 3.386157 5.868307 L 3.385163 5.868790 L 3.384165 5.869271 L 3.383168 5.869749 L 3.382171 5.870225 L 3.381171 5.870697 L 3.380169 5.871168 L 3.379168 5.871636 L 3.378165 5.872101 L 3.377161 5.872564 L 3.376156 5.873025 L 3.375149 5.873482 L 3.374140 5.873938 L 3.373132 5.874390 L 3.372122 5.874840 L 3.371111 5.875289 L 3.370099 5.875733 L 3.369085 5.876176 L 3.368071 5.876617 L 3.367056 5.877054 L 3.366039 5.877489 L 3.365021 5.877922 L 3.364001 5.878351 L 3.362982 5.878779 L 3.361961 5.879204 L 3.360939 5.879626 L 3.359915 5.880046 L 3.358892 5.880463 L 3.357867 5.880876 L 3.356840 5.881289 L 3.355813 5.881699 L 3.354785 5.882104 L 3.353754 5.882508 L 3.352725 5.882911 L 3.351693 5.883310 L 3.350661 5.883706 L 3.349628 5.884100 L 3.348593 5.884490 L 3.347558 5.884879 L 3.346521 5.885265 L 3.345485 5.885649 L 3.344446 5.886029 L 3.343407 5.886408 L 3.342367 5.886783 L 3.341325 5.887157 L 3.340283 5.887526 L 3.339240 5.887894 L 3.338197 5.888260 L 3.337153 5.888622 L 3.336107 5.888982 L 3.335060 5.889339 L 3.334013 5.889693 L 3.332964 5.890046 L 3.331915 5.890394 L 3.330865 5.890742 L 3.329814 5.891086 L 3.328763 5.891426 L 3.327710 5.891765 L 3.326656 5.892101 L 3.325601 5.892435 L 3.324546 5.892767 L 3.323490 5.893094 L 3.322433 5.893419 L 3.321376 5.893743 L 3.320317 5.894063 L 3.319258 5.894381 L 3.318199 5.894696 L 3.317138 5.895007 L 3.316075 5.895317 L 3.315013 5.895624 L 3.313950 5.895928 L 3.312886 5.896229 L 3.311821 5.896529 L 3.310756 5.896825 L 3.309690 5.897118 L 3.308622 5.897410 L 3.307556 5.897697 L 3.306486 5.897983 L 3.305418 5.898265 L 3.304347 5.898546 L 3.303278 5.898824 L 3.302206 5.899097 L 3.301135 5.899369 L 3.300063 5.899639 L 3.298989 5.899906 L 3.297915 5.900169 L 3.296840 5.900431 L 3.295765 5.900689 L 3.294689 5.900946 L 3.293613 5.901199 L 3.292536 5.901449 L 3.291458 5.901697 L 3.290379 5.901942 L 3.289300 5.902183 L 3.288221 5.902424 L 3.287140 5.902660 L 3.286060 5.902894 L 3.284979 5.903126 L 3.283897 5.903354 L 3.282814 5.903581 L 3.281731 5.903804 L 3.280647 5.904025 L 3.279564 5.904243 L 3.278479 5.904458 L 3.277393 5.904669 L 3.276308 5.904879 L 3.275221 5.905086 L 3.274135 5.905290 L 3.273047 5.905493 L 3.271960 5.905692 L 3.270871 5.905888 L 3.269782 5.906081 L 3.268693 5.906271 L 3.267603 5.906458 L 3.266513 5.906644 L 3.265422 5.906826 L 3.264331 5.907006 L 3.263239 5.907183 L 3.262147 5.907357 L 3.261056 5.907528 L 3.259963 5.907697 L 3.258868 5.907863 L 3.257775 5.908026 L 3.256681 5.908186 L 3.255586 5.908344 L 3.254492 5.908499 L 3.253396 5.908651 L 3.252300 5.908800 L 3.251204 5.908947 L 3.250108 5.909092 L 3.249011 5.909232 L 3.247914 5.909371 L 3.246817 5.909506 L 3.245718 5.909639 L 3.244621 5.909769 L 3.243522 5.909896 L 3.242424 5.910021 L 3.241324 5.910143 L 3.240225 5.910263 L 3.239125 5.910378 L 3.238025 5.910492 L 3.236925 5.910603 L 3.235824 5.910711 L 3.234724 5.910815 L 3.233622 5.910918 L 3.232521 5.911018 L 3.231419 5.911115 L 3.230318 5.911210 L 3.229215 5.911300 L 3.228113 5.911389 L 3.227011 5.911475 L 3.225908 5.911558 L 3.224806 5.911639 L 3.223701 5.911717 L 3.222599 5.911790 L 3.221494 5.911863 L 3.220392 5.911932 L 3.219288 5.911999 L 3.218183 5.912063 L 3.217079 5.912124 L 3.215975 5.912182 L 3.214871 5.912236 L 3.213767 5.912289 L 3.212661 5.912339 L 3.211557 5.912386 L 3.210451 5.912431 L 3.209346 5.912472 L 3.208242 5.912511 L 3.207136 5.912547 L 3.206031 5.912581 L 3.204925 5.912610 L 3.203819 5.912638 L 3.202714 5.912663 L 3.201608 5.912685 L 3.200503 5.912704 L 3.199397 5.912721 L 3.198292 5.912735 L 3.197186 5.912746 L 3.196079 5.912754 L 3.194974 5.912758 L 3.193868 5.912761 L 3.192763 5.912761 L 3.191657 5.912758 L 3.190550 5.912753 L 3.189444 5.912744 L 3.188339 5.912733 L 3.187233 5.912719 L 3.186128 5.912703 L 3.185022 5.912682 L 3.183917 5.912660 L 3.182811 5.912635 L 3.181706 5.912607 L 3.180600 5.912576 L 3.179494 5.912543 L 3.178389 5.912507 L 3.177285 5.912468 L 3.176179 5.912426 L 3.175074 5.912382 L 3.173969 5.912333 L 3.172865 5.912283 L 3.171760 5.912231 L 3.170656 5.912175 L 3.169551 5.912117 L 3.168447 5.912056 L 3.167343 5.911992 L 3.166239 5.911925 L 3.165136 5.911856 L 3.164032 5.911783 L 3.162929 5.911708 L 3.161826 5.911631 L 3.160724 5.911549 L 3.159621 5.911465 L 3.158518 5.911379 L 3.157415 5.911290 L 3.156314 5.911199 L 3.155211 5.911104 L 3.154110 5.911007 L 3.153008 5.910907 L 3.151908 5.910804 L 3.150807 5.910699 L 3.149707 5.910590 L 3.148606 5.910479 L 3.147506 5.910365 L 3.146407 5.910249 L 3.145307 5.910129 L 3.144208 5.910008 L 3.143110 5.909883 L 3.142011 5.909756 L 3.140913 5.909625 L 3.139815 5.909492 L 3.138718 5.909356 L 3.137621 5.909217 L 3.136524 5.909075 L 3.135428 5.908932 L 3.134331 5.908785 L 3.133236 5.908635 L 3.132140 5.908482 L 3.131046 5.908328 L 3.129951 5.908169 L 3.128857 5.908008 L 3.127763 5.907844 L 3.126669 5.907679 L 3.125576 5.907510 L 3.124485 5.907339 L 3.123393 5.907164 L 3.122301 5.906986 L 3.121210 5.906807 L 3.120119 5.906624 L 3.119029 5.906439 L 3.117939 5.906250 L 3.116850 5.906060 L 3.115761 5.905867 L 3.114674 5.905669 L 3.113585 5.905471 L 3.112497 5.905269 L 3.111411 5.905064 L 3.110325 5.904857 L 3.109239 5.904647 L 3.108154 5.904435 L 3.107069 5.904219 L 3.105985 5.904001 L 3.104901 5.903781 L 3.103818 5.903557 L 3.102736 5.903331 L 3.101654 5.903101 L 3.100574 5.902869 L 3.099493 5.902635 L 3.098413 5.902397 L 3.097333 5.902158 L 3.096254 5.901915 L 3.095175 5.901669 L 3.094097 5.901422 L 3.093021 5.901171 L 3.091944 5.900918 L 3.090868 5.900661 L 3.089793 5.900403 L 3.088719 5.900142 L 3.087646 5.899876 L 3.086572 5.899610 L 3.085500 5.899340 L 3.084428 5.899068 L 3.083357 5.898793 L 3.082286 5.898515 L 3.081217 5.898235 L 3.080147 5.897951 L 3.079079 5.897667 L 3.078013 5.897378 L 3.076944 5.897086 L 3.075879 5.896793 L 3.074814 5.896496 L 3.073749 5.896197 L 3.072685 5.895896 L 3.071622 5.895590 L 3.070560 5.895283 L 3.069499 5.894974 L 3.068438 5.894661 L 3.067378 5.894346 L 3.066318 5.894028 L 3.065260 5.893708 L 3.064203 5.893385 L 3.063146 5.893058 L 3.062089 5.892731 L 3.061035 5.892400 L 3.059981 5.892065 L 3.058926 5.891729 L 3.057874 5.891390 L 3.056822 5.891049 L 3.055772 5.890704 L 3.054722 5.890357 L 3.053672 5.890007 L 3.052624 5.889656 L 3.051576 5.889300 L 3.050531 5.888943 L 3.049485 5.888583 L 3.048440 5.888219 L 3.047396 5.887854 L 3.046354 5.887486 L 3.045311 5.887117 L 3.044271 5.886743 L 3.043231 5.886367 L 3.042192 5.885989 L 3.041154 5.885607 L 3.040117 5.885224 L 3.039081 5.884838 L 3.038044 5.884449 L 3.037011 5.884057 L 3.035978 5.883663 L 3.034946 5.883267 L 3.033914 5.882867 L 3.032883 5.882465 L 3.031854 5.882061 L 3.030826 5.881654 L 3.029799 5.881244 L 3.028774 5.880832 L 3.027749 5.880418 L 3.026724 5.880000 L 3.025701 5.879581 L 3.024679 5.879158 L 3.023658 5.878733 L 3.022638 5.878306 L 3.021619 5.877875 L 3.020601 5.877442 L 3.019585 5.877007 L 3.018569 5.876569 L 3.017556 5.876129 L 3.016542 5.875686 L 3.015531 5.875240 L 3.014519 5.874793 L 3.013508 5.874342 L 3.012500 5.873889 L 3.011493 5.873433 L 3.010486 5.872975 L 3.009481 5.872514 L 3.008476 5.872051 L 3.007474 5.871586 L 3.006472 5.871117 L 3.005471 5.870646 L 3.004472 5.870174 L 3.003474 5.869697 L 3.002476 5.869219 L 3.001481 5.868739 L 3.000486 5.868256 L 2.999493 5.867769 L 2.998500 5.867281 L 2.997510 5.866790 L 2.996519 5.866297 L 2.995531 5.865801 L 2.994543 5.865303 L 2.993558 5.864803 L 2.992574 5.864300 L 2.991589 5.863793 L 2.990607 5.863286 L 2.989626 5.862775 L 2.988647 5.862263 L 2.987668 5.861747 L 2.986692 5.861229 L 2.985715 5.860708 L 2.984742 5.860185 L 2.983768 5.859660 L 2.982796 5.859132 L 2.981826 5.858603 L 2.980857 5.858069 L 2.979889 5.857535 L 2.978922 5.856997 L 2.977957 5.856457 L 2.976993 5.855915 L 2.975071 5.854824 L 2.974111 5.854274 L 2.973256 5.853781 L 1.231413 4.848128 L 1.230456 4.847574 L 1.229500 4.847018 L 1.228546 4.846458 L 1.227593 4.845897 L 1.226642 4.845333 L 1.225692 4.844768 L 1.224743 4.844199 L 1.223796 4.843628 L 1.222851 4.843056 L 1.221907 4.842479 L 1.220964 4.841901 L 1.220022 4.841321 L 1.219082 4.840739 L 1.218144 4.840153 L 1.217207 4.839565 L 1.216272 4.838976 L 1.215338 4.838385 L 1.214406 4.837789 L 1.213475 4.837193 L 1.212544 4.836593 L 1.211617 4.835992 L 1.210690 4.835389 L 1.209765 4.834782 L 1.208842 4.834174 L 1.207921 4.833563 L 1.207000 4.832950 L 1.206082 4.832335 L 1.205164 4.831717 L 1.204249 4.831097 L 1.203335 4.830475 L 1.202422 4.829850 L 1.201511 4.829224 L 1.200601 4.828594 L 1.199693 4.827963 L 1.198788 4.827329 L 1.197882 4.826693 L 1.196979 4.826054 L 1.196078 4.825414 L 1.195178 4.824771 L 1.194281 4.824126 L 1.193383 4.823479 L 1.192489 4.822829 L 1.191596 4.822178 L 1.190704 4.821524 L 1.189814 4.820867 L 1.188925 4.820208 L 1.188039 4.819547 L 1.187153 4.818885 L 1.186269 4.818219 L 1.185389 4.817551 L 1.184508 4.816882 L 1.183629 4.816211 L 1.182753 4.815536 L 1.181878 4.814860 L 1.181006 4.814182 L 1.180133 4.813501 L 1.179264 4.812818 L 1.178396 4.812133 L 1.177529 4.811446 L 1.176664 4.810757 L 1.175801 4.810065 L 1.174940 4.809371 L 1.174081 4.808675 L 1.173224 4.807978 L 1.172367 4.807278 L 1.171513 4.806575 L 1.170661 4.805871 L 1.169810 4.805164 L 1.168961 4.804456 L 1.168114 4.803744 L 1.167268 4.803032 L 1.166425 4.802317 L 1.165583 4.801599 L 1.164743 4.800879 L 1.163906 4.800158 L 1.163069 4.799435 L 1.162235 4.798710 L 1.161401 4.797982 L 1.160571 4.797251 L 1.159742 4.796519 L 1.158915 4.795786 L 1.158090 4.795050 L 1.157267 4.794311 L 1.156444 4.793571 L 1.155625 4.792829 L 1.154807 4.792085 L 1.153992 4.791339 L 1.153178 4.790590 L 1.152365 4.789839 L 1.151554 4.789088 L 1.150746 4.788332 L 1.149940 4.787576 L 1.149135 4.786817 L 1.148332 4.786057 L 1.147532 4.785294 L 1.146732 4.784529 L 1.145936 4.783763 L 1.145140 4.782994 L 1.144347 4.782224 L 1.143557 4.781451 L 1.142767 4.780676 L 1.141979 4.779900 L 1.141194 4.779121 L 1.140411 4.778340 L 1.139629 4.777558 L 1.138850 4.776774 L 1.138072 4.775988 L 1.137297 4.775199 L 1.136524 4.774408 L 1.135753 4.773617 L 1.134983 4.772822 L 1.134215 4.772026 L 1.133450 4.771228 L 1.132686 4.770428 L 1.131925 4.769626 L 1.131165 4.768822 L 1.130408 4.768017 L 1.129653 4.767210 L 1.128899 4.766400 L 1.128147 4.765589 L 1.127399 4.764775 L 1.126651 4.763960 L 1.125906 4.763143 L 1.125163 4.762324 L 1.124421 4.761503 L 1.123682 4.760681 L 1.122946 4.759857 L 1.122210 4.759031 L 1.121478 4.758201 L 1.120747 4.757372 L 1.120018 4.756540 L 1.119292 4.755707 L 1.118567 4.754871 L 1.117844 4.754033 L 1.117125 4.753194 L 1.116406 4.752354 L 1.115690 4.751511 L 1.114976 4.750667 L 1.114264 4.749821 L 1.113554 4.748972 L 1.112847 4.748122 L 1.112142 4.747271 L 1.111439 4.746417 L 1.110738 4.745563 L 1.110039 4.744706 L 1.109342 4.743846 L 1.108647 4.742986 L 1.107954 4.742124 L 1.107264 4.741260 L 1.106576 4.740394 L 1.105890 4.739526 L 1.105206 4.738658 L 1.104525 4.737788 L 1.103846 4.736914 L 1.103168 4.736040 L 1.102493 4.735164 L 1.101819 4.734288 L 1.100481 4.732526 L 1.099815 4.731644 L 1.099151 4.730760 L 1.098489 4.729874 L 1.097829 4.728986 L 1.097172 4.728097 L 1.096517 4.727206 L 1.095864 4.726313 L 1.095214 4.725419 L 1.094565 4.724524 L 1.093919 4.723625 L 1.093275 4.722726 L 1.092635 4.721826 L 1.091994 4.720924 L 1.091358 4.720019 L 1.090724 4.719114 L 1.090090 4.718207 L 1.089460 4.717299 L 1.088832 4.716388 L 1.088207 4.715476 L 1.087583 4.714563 L 1.086963 4.713647 L 1.086343 4.712731 L 1.085728 4.711813 L 1.085113 4.710893 L 1.084501 4.709972 L 1.083892 4.709050 L 1.083285 4.708125 L 1.082679 4.707200 L 1.082078 4.706272 L 1.081478 4.705343 L 1.080879 4.704413 L 1.080283 4.703482 L 1.079690 4.702549 L 1.079100 4.701613 L 1.078511 4.700676 L 1.077925 4.699739 L 1.077342 4.698800 L 1.076760 4.697860 L 1.076181 4.696917 L 1.075604 4.695974 L 1.075031 4.695029 L 1.074458 4.694082 L 1.073889 4.693135 L 1.073321 4.692185 L 1.072757 4.691235 L 1.072194 4.690282 L 1.071635 4.689329 L 1.071076 4.688374 L 1.070521 4.687417 L 1.069968 4.686460 L 1.069418 4.685500 L 1.068871 4.684540 L 1.068325 4.683578 L 1.067782 4.682614 L 1.067240 4.681650 L 1.066703 4.680683 L 1.066167 4.679717 L 1.065633 4.678747 L 1.065103 4.677778 L 1.064574 4.676807 L 1.064047 4.675833 L 1.063524 4.674860 L 1.063003 4.673885 L 1.062483 4.672908 L 1.061968 4.671931 L 1.061454 4.670951 L 1.060942 4.669971 L 1.060433 4.668989 L 1.059926 4.668006 L 1.058921 4.666036 L 1.058422 4.665049 L 1.057926 4.664061 L 1.057432 4.663071 L 1.056940 4.662081 L 1.056451 4.661089 L 1.055964 4.660096 L 1.055481 4.659101 L 1.054999 4.658107 L 1.054519 4.657110 L 1.054043 4.656113 L 1.053569 4.655113 L 1.053097 4.654113 L 1.052628 4.653111 L 1.052161 4.652108 L 1.051697 4.651104 L 1.051236 4.650100 L 1.050776 4.649094 L 1.050321 4.648086 L 1.049867 4.647078 L 1.049415 4.646068 L 1.048967 4.645058 L 1.048519 4.644046 L 1.048076 4.643033 L 1.047635 4.642019 L 1.047196 4.641004 L 1.046760 4.639988 L 1.046326 4.638971 L 1.045896 4.637953 L 1.045467 4.636933 L 1.045042 4.635913 L 1.044618 4.634890 L 1.044197 4.633868 L 1.043779 4.632844 L 1.043364 4.631819 L 1.042950 4.630794 L 1.042540 4.629767 L 1.042132 4.628739 L 1.041726 4.627710 L 1.041324 4.626681 L 1.040924 4.625650 L 1.040526 4.624618 L 1.040132 4.623585 L 1.039739 4.622550 L 1.039349 4.621515 L 1.038963 4.620481 L 1.038578 4.619443 L 1.038196 4.618406 L 1.037817 4.617367 L 1.037439 4.616326 L 1.037065 4.615286 L 1.036694 4.614244 L 1.036325 4.613203 L 1.035958 4.612158 L 1.035594 4.611114 L 1.035235 4.610069 L 1.034875 4.609024 L 1.034519 4.607976 L 1.034167 4.606928 L 1.033817 4.605879 L 1.033468 4.604829 L 1.033124 4.603779 L 1.032781 4.602728 L 1.032440 4.601675 L 1.032103 4.600622 L 1.031768 4.599568 L 1.031436 4.598514 L 1.031107 4.597457 L 1.030781 4.596401 L 1.030457 4.595344 L 1.030135 4.594286 L 1.029817 4.593226 L 1.029500 4.592167 L 1.029188 4.591107 L 1.028876 4.590046 L 1.028568 4.588983 L 1.028263 4.587921 L 1.027960 4.586857 L 1.027660 4.585793 L 1.027363 4.584728 L 1.027068 4.583661 L 1.026776 4.582594 L 1.026486 4.581528 L 1.026200 4.580460 L 1.025917 4.579390 L 1.025635 4.578321 L 1.025356 4.577251 L 1.025081 4.576181 L 1.024807 4.575108 L 1.024536 4.574036 L 1.024268 4.572964 L 1.024003 4.571890 L 1.023740 4.570815 L 1.023481 4.569740 L 1.023224 4.568665 L 1.022969 4.567589 L 1.022718 4.566513 L 1.022469 4.565435 L 1.022224 4.564357 L 1.021979 4.563278 L 1.021739 4.562199 L 1.021500 4.561119 L 1.021265 4.560039 L 1.021032 4.558957 L 1.020803 4.557875 L 1.020575 4.556793 L 1.020351 4.555711 L 1.020129 4.554628 L 1.019910 4.553543 L 1.019693 4.552458 L 1.019481 4.551374 L 1.019269 4.550289 L 1.019061 4.549203 L 1.018856 4.548115 L 1.018653 4.547028 L 1.018453 4.545940 L 1.018256 4.544853 L 1.018061 4.543764 L 1.017869 4.542675 L 1.017681 4.541586 L 1.017494 4.540496 L 1.017310 4.539406 L 1.017129 4.538314 L 1.016951 4.537222 L 1.016776 4.536131 L 1.016603 4.535039 L 1.016433 4.533946 L 1.016267 4.532853 L 1.016101 4.531760 L 1.015940 4.530665 L 1.015782 4.529571 L 1.015625 4.528476 L 1.015472 4.527381 L 1.015321 4.526285 L 1.015174 4.525189 L 1.015028 4.524093 L 1.014886 4.522996 L 1.014746 4.521900 L 1.014610 4.520803 L 1.014475 4.519704 L 1.014344 4.518607 L 1.014215 4.517508 L 1.014090 4.516410 L 1.013967 4.515311 L 1.013846 4.514211 L 1.013729 4.513111 L 1.013614 4.512011 L 1.013503 4.510911 L 1.013393 4.509811 L 1.013286 4.508711 L 1.013183 4.507610 L 1.013082 4.506508 L 1.012983 4.505407 L 1.012888 4.504306 L 1.012796 4.503203 L 1.012706 4.502101 L 1.012618 4.500999 L 1.012535 4.499896 L 1.012453 4.498793 L 1.012374 4.497690 L 1.012297 4.496586 L 1.012225 4.495483 L 1.012154 4.494379 L 1.012086 4.493276 L 1.012021 4.492172 L 1.011960 4.491068 L 1.011900 4.489964 L 1.011843 4.488860 L 1.011789 4.487754 L 1.011739 4.486650 L 1.011690 4.485546 L 1.011644 4.484440 L 1.011601 4.483336 L 1.011561 4.482231 L 1.011525 4.481125 L 1.011490 4.480019 L 1.011458 4.478914 L 1.011429 4.477808 L 1.011404 4.476703 L 1.011381 4.475597 L 1.011360 4.474492 L 1.011342 4.473386 L 1.011326 4.472281 L 1.011315 4.471175 L 1.011306 4.470069 L 1.011299 4.468964 L 1.011294 4.467857 L 1.011293 4.466871 L 1.011293 2.455563 L 1.011294 2.454457 L 1.011299 2.453351 L 1.011306 2.452244 L 1.011315 2.451139 L 1.011328 2.450033 L 1.011343 2.448928 L 1.011361 2.447822 L 1.011382 2.446717 L 1.011406 2.445611 L 1.011432 2.444506 L 1.011461 2.443400 L 1.011493 2.442294 L 1.011528 2.441189 L 1.011565 2.440083 L 1.011606 2.438979 L 1.011649 2.437874 L 1.011694 2.436769 L 1.011743 2.435664 L 1.011794 2.434560 L 1.011849 2.433456 L 1.011906 2.432350 L 1.011965 2.431246 L 1.012028 2.430142 L 1.012093 2.429039 L 1.012161 2.427935 L 1.012232 2.426831 L 1.012306 2.425728 L 1.012382 2.424625 L 1.012461 2.423521 L 1.012543 2.422418 L 1.012628 2.421317 L 1.012715 2.420214 L 1.012806 2.419111 L 1.012899 2.418010 L 1.012994 2.416908 L 1.013093 2.415807 L 1.013193 2.414706 L 1.013297 2.413604 L 1.013404 2.412504 L 1.013514 2.411403 L 1.013626 2.410303 L 1.013742 2.409203 L 1.013860 2.408104 L 1.013981 2.407004 L 1.014103 2.405906 L 1.014229 2.404807 L 1.014358 2.403708 L 1.014490 2.402611 L 1.014624 2.401513 L 1.014761 2.400415 L 1.014901 2.399319 L 1.015044 2.398222 L 1.015189 2.397126 L 1.015338 2.396031 L 1.015489 2.394935 L 1.015642 2.393839 L 1.015799 2.392744 L 1.015958 2.391650 L 1.016119 2.390557 L 1.016285 2.389463 L 1.016451 2.388369 L 1.016622 2.387278 L 1.016794 2.386185 L 1.016971 2.385093 L 1.017149 2.384001 L 1.017331 2.382911 L 1.017514 2.381821 L 1.017700 2.380731 L 1.017890 2.379640 L 1.018082 2.378551 L 1.018276 2.377464 L 1.018474 2.376375 L 1.018675 2.375288 L 1.018878 2.374201 L 1.019083 2.373114 L 1.019292 2.372028 L 1.019503 2.370943 L 1.019717 2.369858 L 1.019933 2.368774 L 1.020153 2.367689 L 1.020375 2.366606 L 1.020600 2.365524 L 1.020828 2.364442 L 1.021057 2.363360 L 1.021290 2.362279 L 1.021526 2.361199 L 1.021764 2.360118 L 1.022006 2.359039 L 1.022250 2.357961 L 1.022496 2.356882 L 1.022744 2.355806 L 1.022997 2.354728 L 1.023251 2.353653 L 1.023510 2.352576 L 1.023769 2.351501 L 1.024032 2.350428 L 1.024297 2.349354 L 1.024565 2.348282 L 1.024836 2.347210 L 1.025110 2.346138 L 1.025386 2.345067 L 1.025665 2.343997 L 1.025946 2.342928 L 1.026231 2.341858 L 1.026518 2.340790 L 1.026807 2.339724 L 1.027100 2.338657 L 1.027394 2.337592 L 1.027692 2.336526 L 1.027993 2.335463 L 1.028296 2.334399 L 1.028601 2.333336 L 1.028910 2.332274 L 1.029221 2.331213 L 1.029535 2.330153 L 1.029851 2.329093 L 1.030169 2.328033 L 1.030492 2.326975 L 1.030815 2.325918 L 1.031143 2.324863 L 1.031472 2.323807 L 1.031804 2.322751 L 1.032140 2.321697 L 1.032478 2.320644 L 1.032818 2.319593 L 1.033160 2.318542 L 1.033506 2.317490 L 1.033854 2.316442 L 1.034204 2.315393 L 1.034558 2.314344 L 1.034914 2.313297 L 1.035272 2.312251 L 1.035635 2.311207 L 1.035999 2.310163 L 1.036365 2.309119 L 1.036733 2.308076 L 1.037106 2.307035 L 1.037481 2.305994 L 1.037857 2.304954 L 1.038236 2.303917 L 1.038619 2.302879 L 1.039004 2.301842 L 1.039392 2.300806 L 1.039781 2.299771 L 1.040174 2.298738 L 1.040569 2.297704 L 1.040967 2.296672 L 1.041367 2.295642 L 1.041771 2.294613 L 1.042176 2.293583 L 1.042583 2.292556 L 1.042994 2.291529 L 1.043408 2.290503 L 1.043824 2.289479 L 1.044243 2.288456 L 1.044664 2.287432 L 1.045088 2.286411 L 1.045514 2.285390 L 1.045942 2.284371 L 1.046374 2.283353 L 1.046807 2.282336 L 1.047243 2.281319 L 1.047682 2.280304 L 1.048124 2.279290 L 1.048568 2.278278 L 1.049015 2.277267 L 1.049464 2.276256 L 1.049915 2.275246 L 1.050369 2.274239 L 1.050826 2.273231 L 1.051286 2.272225 L 1.051747 2.271221 L 1.052211 2.270217 L 1.052679 2.269214 L 1.053147 2.268213 L 1.053619 2.267213 L 1.054094 2.266214 L 1.054571 2.265217 L 1.055050 2.264219 L 1.055532 2.263225 L 1.056017 2.262231 L 1.056504 2.261238 L 1.056993 2.260246 L 1.057485 2.259256 L 1.057979 2.258267 L 1.058476 2.257278 L 1.058975 2.256292 L 1.059478 2.255306 L 1.059982 2.254322 L 1.060488 2.253339 L 1.060997 2.252357 L 1.061508 2.251376 L 1.062024 2.250397 L 1.062540 2.249419 L 1.063058 2.248443 L 1.063581 2.247468 L 1.064104 2.246494 L 1.064631 2.245522 L 1.065160 2.244551 L 1.065690 2.243581 L 1.066224 2.242613 L 1.067299 2.240679 L 1.067840 2.239715 L 1.068383 2.238751 L 1.068929 2.237790 L 1.069478 2.236829 L 1.070028 2.235871 L 1.070581 2.234913 L 1.071136 2.233957 L 1.071694 2.233001 L 1.072254 2.232049 L 1.072817 2.231097 L 1.073382 2.230146 L 1.073950 2.229197 L 1.074519 2.228249 L 1.075092 2.227303 L 1.075667 2.226358 L 1.076243 2.225414 L 1.076822 2.224472 L 1.077404 2.223532 L 1.077989 2.222593 L 1.078575 2.221656 L 1.079164 2.220719 L 1.079754 2.219785 L 1.080347 2.218851 L 1.080943 2.217919 L 1.081542 2.216990 L 1.082142 2.216061 L 1.082744 2.215135 L 1.083350 2.214208 L 1.083957 2.213285 L 1.084567 2.212363 L 1.085179 2.211440 L 1.085793 2.210521 L 1.086410 2.209603 L 1.087029 2.208688 L 1.087650 2.207772 L 1.088274 2.206858 L 1.088900 2.205947 L 1.089528 2.205038 L 1.090158 2.204129 L 1.090792 2.203222 L 1.091426 2.202317 L 1.092064 2.201413 L 1.092703 2.200511 L 1.093344 2.199610 L 1.093989 2.198711 L 1.094635 2.197814 L 1.095283 2.196918 L 1.095935 2.196024 L 1.096588 2.195132 L 1.097243 2.194240 L 1.097900 2.193351 L 1.098560 2.192464 L 1.099222 2.191578 L 1.099886 2.190694 L 1.100553 2.189811 L 1.101222 2.188931 L 1.101893 2.188051 L 1.102565 2.187175 L 1.103240 2.186299 L 1.103918 2.185425 L 1.104597 2.184553 L 1.105279 2.183682 L 1.105964 2.182813 L 1.106650 2.181946 L 1.107339 2.181081 L 1.108029 2.180217 L 1.108722 2.179354 L 1.109417 2.178494 L 1.110114 2.177636 L 1.110813 2.176779 L 1.111514 2.175924 L 1.112218 2.175071 L 1.112924 2.174219 L 1.113631 2.173369 L 1.114342 2.172522 L 1.115053 2.171676 L 1.115767 2.170832 L 1.116483 2.169989 L 1.117201 2.169149 L 1.117922 2.168310 L 1.118644 2.167472 L 1.119369 2.166638 L 1.120096 2.165804 L 1.120825 2.164972 L 1.121557 2.164142 L 1.122289 2.163314 L 1.123025 2.162488 L 1.123761 2.161664 L 1.124501 2.160842 L 1.125243 2.160021 L 1.125986 2.159203 L 1.126732 2.158385 L 1.127479 2.157571 L 1.128228 2.156757 L 1.128981 2.155946 L 1.129733 2.155138 L 1.130489 2.154329 L 1.131247 2.153524 L 1.132007 2.152721 L 1.132768 2.151919 L 1.133532 2.151119 L 1.134297 2.150321 L 1.135065 2.149525 L 1.135835 2.148732 L 1.136607 2.147939 L 1.137381 2.147149 L 1.138157 2.146361 L 1.138935 2.145575 L 1.139714 2.144790 L 1.140496 2.144008 L 1.141279 2.143228 L 1.142064 2.142450 L 1.142851 2.141674 L 1.143642 2.140899 L 1.144433 2.140126 L 1.145226 2.139356 L 1.146021 2.138588 L 1.146818 2.137821 L 1.147618 2.137057 L 1.148418 2.136294 L 1.149222 2.135535 L 1.150026 2.134776 L 1.150833 2.134019 L 1.151642 2.133265 L 1.152453 2.132513 L 1.153265 2.131763 L 1.154079 2.131014 L 1.154896 2.130268 L 1.155714 2.129524 L 1.156533 2.128782 L 1.157356 2.128042 L 1.158179 2.127304 L 1.159004 2.126568 L 1.159832 2.125835 L 1.160661 2.125103 L 1.161492 2.124374 L 1.162325 2.123646 L 1.163158 2.122921 L 1.163996 2.122197 L 1.164833 2.121476 L 1.165674 2.120757 L 1.166515 2.120040 L 1.167360 2.119325 L 1.168206 2.118613 L 1.169053 2.117901 L 1.169901 2.117193 L 1.170753 2.116486 L 1.171604 2.115782 L 1.172460 2.115081 L 1.173315 2.114381 L 1.174174 2.113683 L 1.175033 2.112988 L 1.175894 2.112293 L 1.176757 2.111603 L 1.177622 2.110913 L 1.178489 2.110226 L 1.179357 2.109542 L 1.180228 2.108858 L 1.181099 2.108178 L 1.181972 2.107500 L 1.182847 2.106824 L 1.183725 2.106150 L 1.184603 2.105479 L 1.185483 2.104810 L 1.186365 2.104142 L 1.187249 2.103478 L 1.188133 2.102814 L 1.189021 2.102154 L 1.189910 2.101496 L 1.190800 2.100840 L 1.191692 2.100186 L 1.192585 2.099535 L 1.193481 2.098885 L 1.194376 2.098238 L 1.195275 2.097593 L 1.196175 2.096950 L 1.197076 2.096310 L 1.197981 2.095672 L 1.198885 2.095036 L 1.199792 2.094403 L 1.200699 2.093772 L 1.201608 2.093143 L 1.202519 2.092517 L 1.203433 2.091892 L 1.204347 2.091269 L 1.205263 2.090650 L 1.206181 2.090032 L 1.207099 2.089417 L 1.208019 2.088804 L 1.208942 2.088194 L 1.209865 2.087586 L 1.210790 2.086979 L 1.211717 2.086376 L 1.212644 2.085775 L 1.213575 2.085176 L 1.214506 2.084579 L 1.215439 2.083985 L 1.216372 2.083393 L 1.217308 2.082804 L 1.218246 2.082217 L 1.219183 2.081632 L 1.220124 2.081050 L 1.221065 2.080469 L 1.222008 2.079892 L 1.222953 2.079317 L 1.223899 2.078743 L 1.224846 2.078172 L 1.225794 2.077604 L 1.226744 2.077039 L 1.227696 2.076475 L 1.228649 2.075914 L 1.229603 2.075356 L 1.230558 2.074799 L 1.231413 2.074306 L 2.973256 1.068653 L 2.974214 1.068100 L 2.975174 1.067551 L 2.976135 1.067004 L 2.977097 1.066460 L 2.978061 1.065918 L 2.979026 1.065378 L 2.979993 1.064840 L 2.980961 1.064306 L 2.981931 1.063774 L 2.982901 1.063244 L 2.983874 1.062717 L 2.984846 1.062192 L 2.985821 1.061668 L 2.986797 1.061149 L 2.987774 1.060631 L 2.988753 1.060115 L 2.989732 1.059603 L 2.990714 1.059093 L 2.991696 1.058585 L 2.992679 1.058079 L 2.993664 1.057576 L 2.994650 1.057076 L 2.995638 1.056578 L 2.996626 1.056083 L 2.997617 1.055590 L 2.998607 1.055099 L 2.999600 1.054611 L 3.000593 1.054126 L 3.001588 1.053643 L 3.002585 1.053163 L 3.003582 1.052685 L 3.004579 1.052208 L 3.005579 1.051736 L 3.006581 1.051265 L 3.007582 1.050797 L 3.008585 1.050332 L 3.009589 1.049869 L 3.010594 1.049408 L 3.011601 1.048951 L 3.012610 1.048496 L 3.013618 1.048043 L 3.014628 1.047593 L 3.015639 1.047144 L 3.016651 1.046700 L 3.017665 1.046257 L 3.018679 1.045817 L 3.019694 1.045379 L 3.020711 1.044944 L 3.021729 1.044511 L 3.022749 1.044082 L 3.023768 1.043654 L 3.024789 1.043229 L 3.025811 1.042807 L 3.026835 1.042388 L 3.027858 1.041971 L 3.028883 1.041557 L 3.029910 1.041144 L 3.030938 1.040735 L 3.031965 1.040329 L 3.032996 1.039925 L 3.034025 1.039522 L 3.035057 1.039124 L 3.036089 1.038728 L 3.037122 1.038333 L 3.038157 1.037943 L 3.039192 1.037554 L 3.040229 1.037168 L 3.041265 1.036785 L 3.042304 1.036404 L 3.043343 1.036025 L 3.044383 1.035650 L 3.045425 1.035276 L 3.046467 1.034907 L 3.047510 1.034539 L 3.048553 1.034174 L 3.049597 1.033811 L 3.050643 1.033451 L 3.051690 1.033094 L 3.052738 1.032740 L 3.053786 1.032388 L 3.054835 1.032039 L 3.055885 1.031692 L 3.056936 1.031347 L 3.057988 1.031007 L 3.059040 1.030668 L 3.060094 1.030332 L 3.061149 1.029999 L 3.062204 1.029667 L 3.063260 1.029339 L 3.064317 1.029014 L 3.065374 1.028690 L 3.066433 1.028371 L 3.067492 1.028053 L 3.068551 1.027738 L 3.069613 1.027426 L 3.070675 1.027117 L 3.071738 1.026810 L 3.072800 1.026506 L 3.073864 1.026204 L 3.074929 1.025904 L 3.075994 1.025608 L 3.077060 1.025315 L 3.078128 1.025024 L 3.079194 1.024736 L 3.080264 1.024450 L 3.081332 1.024168 L 3.082403 1.023888 L 3.083472 1.023610 L 3.084544 1.023336 L 3.085615 1.023064 L 3.086688 1.022794 L 3.087761 1.022528 L 3.088835 1.022264 L 3.089910 1.022003 L 3.090985 1.021744 L 3.092061 1.021488 L 3.093138 1.021235 L 3.094214 1.020985 L 3.095292 1.020736 L 3.096371 1.020492 L 3.097450 1.020250 L 3.098529 1.020010 L 3.099610 1.019774 L 3.100690 1.019539 L 3.101771 1.019307 L 3.102853 1.019079 L 3.103936 1.018853 L 3.105019 1.018629 L 3.106103 1.018408 L 3.107186 1.018190 L 3.108271 1.017975 L 3.109357 1.017764 L 3.110442 1.017554 L 3.111529 1.017347 L 3.112615 1.017143 L 3.113703 1.016940 L 3.114790 1.016742 L 3.115879 1.016546 L 3.116968 1.016353 L 3.118057 1.016163 L 3.119147 1.015975 L 3.120238 1.015789 L 3.121328 1.015607 L 3.122419 1.015428 L 3.123511 1.015250 L 3.124603 1.015076 L 3.125694 1.014906 L 3.126788 1.014736 L 3.127882 1.014571 L 3.128975 1.014407 L 3.130069 1.014247 L 3.131164 1.014089 L 3.132258 1.013935 L 3.133354 1.013782 L 3.134450 1.013633 L 3.135546 1.013486 L 3.136642 1.013342 L 3.137739 1.013201 L 3.138836 1.013063 L 3.139933 1.012928 L 3.141032 1.012794 L 3.142129 1.012664 L 3.143228 1.012538 L 3.144326 1.012413 L 3.145426 1.012290 L 3.146525 1.012171 L 3.147625 1.012056 L 3.148725 1.011942 L 3.149825 1.011831 L 3.150926 1.011722 L 3.152026 1.011618 L 3.153128 1.011515 L 3.154229 1.011415 L 3.155331 1.011318 L 3.156432 1.011224 L 3.157535 1.011133 L 3.158638 1.011044 L 3.159739 1.010958 L 3.160842 1.010875 L 3.161944 1.010794 L 3.163049 1.010717 L 3.164151 1.010643 L 3.165256 1.010571 L 3.166358 1.010501 L 3.167463 1.010435 L 3.168567 1.010371 L 3.169671 1.010310 L 3.170775 1.010251 L 3.171879 1.010197 L 3.172983 1.010144 L 3.174089 1.010094 L 3.175193 1.010047 L 3.176299 1.010003 L 3.177404 1.009961 L 3.178508 1.009922 L 3.179614 1.009886 L 3.180719 1.009853 L 3.181825 1.009824 L 3.182931 1.009796 L 3.184036 1.009771 L 3.185142 1.009749 L 3.186247 1.009729 L 3.187353 1.009713 L 3.188458 1.009699 L 3.189564 1.009688 L 3.190671 1.009679 L 3.191776 1.009675 L 3.192882 1.009672 L 3.193988 1.009672 Z" transform="scale(72.000000,72.000000) translate(-0.972222,-0.972222)" fill="#ffffff" opacity="1.000000"></path>
        <path d="M 2.392159 3.408661 L 2.830160 3.408661 L 2.840401 3.409178 L 2.850343 3.410695 L 2.859942 3.413164 L 2.869143 3.416531 L 2.877897 3.420750 L 2.886146 3.425761 L 2.886155 3.425766 L 2.886166 3.425773 L 2.893864 3.431531 L 2.900976 3.437995 L 2.907440 3.445107 L 2.913205 3.452817 L 2.918222 3.461073 L 2.922440 3.469829 L 2.925807 3.479031 L 2.928276 3.488627 L 2.929793 3.498572 L 2.930309 3.508792 L 2.930310 3.508811 L 2.930309 3.508832 L 2.929793 3.519052 L 2.928276 3.528995 L 2.925807 3.538593 L 2.922440 3.547795 L 2.918222 3.556550 L 2.913205 3.564807 L 2.907440 3.572517 L 2.900988 3.579617 L 2.900978 3.579629 L 2.900967 3.579638 L 2.893864 3.586093 L 2.886166 3.591851 L 2.886155 3.591858 L 2.886146 3.591863 L 2.877897 3.596874 L 2.869143 3.601093 L 2.859942 3.604460 L 2.850343 3.606929 L 2.840401 3.608445 L 2.830182 3.608961 L 2.830160 3.608963 L 2.383485 3.608963 L 2.383485 3.608943 L 1.945481 3.608943 L 1.925297 3.606908 L 1.906498 3.601072 L 1.889486 3.591839 L 1.874665 3.579609 L 1.862435 3.564788 L 1.853202 3.547776 L 1.847366 3.528977 L 1.845332 3.508793 L 1.847366 3.488609 L 1.853202 3.469811 L 1.862435 3.452799 L 1.874665 3.437978 L 1.889486 3.425748 L 1.906498 3.416514 L 1.925297 3.410679 L 1.945481 3.408645 Z M 2.053620 3.133121 L 2.102193 3.191996 L 2.161069 3.240570 L 2.228641 3.277249 L 2.303311 3.300428 L 2.383485 3.308509 L 2.463656 3.300428 L 2.538326 3.277249 L 2.605899 3.240570 L 2.664774 3.191996 L 2.713349 3.133121 L 2.726869 3.108209 L 3.100152 3.108209 L 3.110391 3.108727 L 3.120336 3.110244 L 3.129932 3.112713 L 3.139133 3.116079 L 3.147888 3.120297 L 3.156146 3.125315 L 3.163855 3.131078 L 3.170968 3.137544 L 3.177433 3.144655 L 3.183186 3.152353 L 3.183196 3.152366 L 3.183206 3.152380 L 3.188214 3.160623 L 3.192431 3.169376 L 3.195797 3.178578 L 3.198266 3.188176 L 3.199783 3.198121 L 3.200302 3.208360 L 3.199783 3.218600 L 3.198266 3.228544 L 3.195797 3.238140 L 3.192431 3.247343 L 3.188214 3.256099 L 3.183206 3.264339 L 3.183196 3.264356 L 3.183186 3.264368 L 3.177433 3.272065 L 3.170968 3.279177 L 3.163855 3.285641 L 3.156146 3.291407 L 3.147888 3.296424 L 3.139142 3.300637 L 3.139134 3.300641 L 3.139128 3.300642 L 3.129932 3.304009 L 3.120336 3.306476 L 3.110391 3.307994 L 3.100172 3.308509 L 3.100152 3.308510 L 1.698066 3.308510 L 1.698066 3.308496 L 1.675489 3.308496 L 1.655305 3.306461 L 1.636506 3.300625 L 1.619495 3.291390 L 1.604674 3.279162 L 1.592444 3.264339 L 1.583210 3.247328 L 1.577375 3.228529 L 1.575341 3.208346 L 1.577375 3.188162 L 1.583210 3.169363 L 1.592444 3.152352 L 1.604674 3.137529 L 1.619495 3.125300 L 1.636506 3.116067 L 1.655305 3.110231 L 1.675489 3.108197 L 2.040092 3.108197 Z M 2.000834 2.807753 L 1.993761 2.830537 L 1.985680 2.910708 L 1.993761 2.990878 L 1.999095 3.008059 L 1.872548 3.008059 L 1.872548 3.008047 L 1.501007 3.008047 L 1.480823 3.006012 L 1.462024 3.000176 L 1.445013 2.990943 L 1.430192 2.978714 L 1.417961 2.963892 L 1.408728 2.946880 L 1.402892 2.928081 L 1.400858 2.907899 L 1.402892 2.887715 L 1.408728 2.868916 L 1.417961 2.851904 L 1.430192 2.837082 L 1.445013 2.824853 L 1.462024 2.815618 L 1.480823 2.809783 L 1.501007 2.807749 Z M 3.274633 2.807758 L 3.284872 2.808275 L 3.294817 2.809793 L 3.304415 2.812259 L 3.313615 2.815627 L 3.322371 2.819845 L 3.330627 2.824861 L 3.338337 2.830627 L 3.345448 2.837090 L 3.351914 2.844203 L 3.357677 2.851913 L 3.362695 2.860171 L 3.366913 2.868925 L 3.370280 2.878127 L 3.372749 2.887725 L 3.374265 2.897669 L 3.374781 2.907888 L 3.374783 2.907908 L 3.374781 2.907929 L 3.374265 2.918149 L 3.372749 2.928092 L 3.370280 2.937690 L 3.366913 2.946891 L 3.362695 2.955647 L 3.357677 2.963904 L 3.351914 2.971612 L 3.345448 2.978726 L 3.338337 2.985189 L 3.330638 2.990947 L 3.330628 2.990954 L 3.330620 2.990960 L 3.322371 2.995971 L 3.313615 3.000188 L 3.304415 3.003557 L 3.294817 3.006024 L 3.284872 3.007542 L 3.274633 3.008059 L 2.767873 3.008059 L 2.773207 2.990878 L 2.781287 2.910708 L 2.773207 2.830537 L 2.766135 2.807758 Z M 2.383463 2.512905 L 2.303311 2.520986 L 2.228641 2.544165 L 2.161069 2.580840 L 2.102193 2.629419 L 2.053620 2.688291 L 2.040097 2.713206 L 1.997439 2.713206 L 1.997439 2.713197 L 1.376117 2.713197 L 1.355934 2.711164 L 1.337135 2.705328 L 1.320122 2.696093 L 1.305301 2.683864 L 1.293072 2.669042 L 1.283838 2.652032 L 1.278002 2.633232 L 1.275967 2.613048 L 1.278002 2.592865 L 1.283838 2.574066 L 1.293072 2.557053 L 1.305301 2.542232 L 1.320122 2.530003 L 1.337135 2.520770 L 1.355934 2.514934 L 1.376117 2.512899 Z M 3.409763 2.513421 L 3.419706 2.514939 L 3.429304 2.517406 L 3.438505 2.520776 L 3.447261 2.524993 L 3.455509 2.530004 L 3.455519 2.530008 L 3.455528 2.530018 L 3.463228 2.535774 L 3.470339 2.542238 L 3.476803 2.549349 L 3.482569 2.557060 L 3.487585 2.565318 L 3.491802 2.574071 L 3.495169 2.583274 L 3.497638 2.592872 L 3.499154 2.602814 L 3.499671 2.613034 L 3.499673 2.613055 L 3.499671 2.613074 L 3.499154 2.623295 L 3.497638 2.633238 L 3.495169 2.642837 L 3.491802 2.652039 L 3.487585 2.660793 L 3.482569 2.669050 L 3.476803 2.676760 L 3.470339 2.683873 L 3.463228 2.690336 L 3.455528 2.696093 L 3.455519 2.696102 L 3.455509 2.696106 L 3.447261 2.701117 L 3.438505 2.705335 L 3.429304 2.708704 L 3.419706 2.711171 L 3.409763 2.712688 L 3.399525 2.713206 L 2.726872 2.713206 L 2.713349 2.688291 L 2.664774 2.629419 L 2.605899 2.580840 L 2.538326 2.544165 L 2.463656 2.520986 L 2.383508 2.512905 L 3.399525 2.512905 Z M 2.392159 2.206855 L 3.499674 2.206855 L 3.509911 2.207371 L 3.519853 2.208889 L 3.519856 2.208889 L 3.519861 2.208890 L 3.529453 2.211356 L 3.538655 2.214725 L 3.547408 2.218943 L 3.555666 2.223959 L 3.563377 2.229724 L 3.570489 2.236188 L 3.576953 2.243300 L 3.582717 2.251011 L 3.587734 2.259268 L 3.591941 2.268005 L 3.591952 2.268022 L 3.591958 2.268040 L 3.595318 2.277223 L 3.597788 2.286821 L 3.599304 2.296764 L 3.599821 2.307004 L 3.599304 2.317245 L 3.597788 2.327188 L 3.595318 2.336786 L 3.591959 2.345963 L 3.591952 2.345989 L 3.591939 2.346013 L 3.587734 2.354743 L 3.582717 2.363001 L 3.576953 2.370710 L 3.570489 2.377822 L 3.563377 2.384286 L 3.555666 2.390052 L 3.547408 2.395068 L 3.538655 2.399284 L 3.529453 2.402654 L 3.519861 2.405120 L 3.519856 2.405121 L 3.519853 2.405121 L 3.509911 2.406639 L 3.499695 2.407154 L 3.499673 2.407156 L 2.097587 2.407156 L 2.097587 2.407153 L 1.275967 2.407153 L 1.255784 2.405117 L 1.236985 2.399282 L 1.219972 2.390047 L 1.205152 2.377818 L 1.192922 2.362996 L 1.183689 2.345985 L 1.177853 2.327185 L 1.175818 2.307003 L 1.177853 2.286819 L 1.183689 2.268020 L 1.192922 2.251008 L 1.205152 2.236186 L 1.219972 2.223957 L 1.236985 2.214724 L 1.255784 2.208888 L 1.275967 2.206854 Z M 3.585516 1.906919 L 3.595458 1.908437 L 3.605056 1.910905 L 3.614257 1.914273 L 3.623012 1.918489 L 3.631269 1.923506 L 3.638980 1.929272 L 3.646092 1.935736 L 3.652555 1.942848 L 3.658321 1.950556 L 3.663337 1.958815 L 3.667554 1.967569 L 3.670923 1.976771 L 3.673389 1.986370 L 3.674906 1.996312 L 3.675424 2.006553 L 3.674906 2.016792 L 3.673389 2.026737 L 3.670923 2.036335 L 3.667554 2.045536 L 3.663337 2.054291 L 3.658321 2.062547 L 3.652555 2.070258 L 3.646092 2.077371 L 3.638980 2.083834 L 3.631280 2.089591 L 3.631269 2.089600 L 3.631261 2.089605 L 3.623012 2.094616 L 3.614257 2.098833 L 3.605056 2.102202 L 3.595458 2.104669 L 3.585516 2.106185 L 3.575277 2.106704 L 1.200365 2.106704 L 1.180181 2.104669 L 1.161382 2.098833 L 1.144370 2.089600 L 1.129548 2.077371 L 1.117319 2.062549 L 1.108085 2.045537 L 1.102250 2.026738 L 1.100215 2.006555 L 1.102250 1.986371 L 1.108085 1.967572 L 1.117319 1.950561 L 1.129548 1.935738 L 1.144370 1.923510 L 1.161382 1.914275 L 1.180181 1.908439 L 1.200365 1.906405 L 2.053122 1.906405 L 2.062293 1.923299 L 2.110868 1.982171 L 2.169744 2.030749 L 2.237315 2.067425 L 2.311985 2.090603 L 2.392156 2.098687 L 2.472327 2.090603 L 2.547000 2.067425 L 2.614572 2.030749 L 2.673444 1.982171 L 2.722023 1.923299 L 2.731193 1.906402 L 3.575277 1.906402 Z M 1.997436 1.670305 L 1.994355 1.700882 L 2.002436 1.781053 L 2.010258 1.806257 L 1.154248 1.806257 L 1.134064 1.804222 L 1.115265 1.798386 L 1.098253 1.789152 L 1.083432 1.776922 L 1.071202 1.762101 L 1.061969 1.745090 L 1.056134 1.726291 L 1.054099 1.706108 L 1.056134 1.685923 L 1.061969 1.667124 L 1.071202 1.650112 L 1.083432 1.635291 L 1.098253 1.623061 L 1.115265 1.613828 L 1.134064 1.607992 L 1.154248 1.605958 L 1.997436 1.605958 Z M 3.631632 1.606468 L 3.641576 1.607985 L 3.651173 1.610454 L 3.660375 1.613822 L 3.669128 1.618038 L 3.677387 1.623055 L 3.685096 1.628820 L 3.692207 1.635284 L 3.698672 1.642395 L 3.704437 1.650106 L 3.709454 1.658365 L 3.713671 1.667118 L 3.717039 1.676319 L 3.719507 1.685918 L 3.721023 1.695861 L 3.721540 1.706102 L 3.721023 1.716341 L 3.719507 1.726286 L 3.717039 1.735884 L 3.713671 1.745085 L 3.709454 1.753839 L 3.704437 1.762096 L 3.698672 1.769806 L 3.692207 1.776918 L 3.685096 1.783383 L 3.677387 1.789148 L 3.669128 1.794165 L 3.660375 1.798382 L 3.651173 1.801748 L 3.641576 1.804218 L 3.631632 1.805734 L 3.621393 1.806253 L 2.774055 1.806253 L 2.781877 1.781053 L 2.789961 1.700882 L 2.789961 1.605951 L 3.621393 1.605951 Z M 1.997436 1.503393 L 1.119611 1.503393 L 1.099428 1.501357 L 1.080628 1.495522 L 1.063616 1.486287 L 1.048794 1.474058 L 1.036566 1.459237 L 1.027332 1.442226 L 1.021496 1.423426 L 1.019461 1.403243 L 1.021496 1.383059 L 1.027332 1.364260 L 1.036566 1.347248 L 1.048794 1.332426 L 1.063616 1.320197 L 1.080628 1.310964 L 1.099428 1.305128 L 1.119611 1.303094 L 1.997436 1.303094 Z M 3.666270 1.303598 L 3.676213 1.305118 L 3.685811 1.307585 L 3.695005 1.310952 L 3.695012 1.310953 L 3.695020 1.310958 L 3.703765 1.315170 L 3.712024 1.320186 L 3.719733 1.325952 L 3.726845 1.332416 L 3.733309 1.339528 L 3.739075 1.347239 L 3.744091 1.355496 L 3.748300 1.364235 L 3.748308 1.364251 L 3.748314 1.364270 L 3.751676 1.373451 L 3.754144 1.383049 L 3.755662 1.392994 L 3.756178 1.403233 L 3.755662 1.413474 L 3.754144 1.423417 L 3.751676 1.433015 L 3.748314 1.442199 L 3.748308 1.442217 L 3.748300 1.442232 L 3.744091 1.450971 L 3.739075 1.459229 L 3.733309 1.466938 L 3.726845 1.474051 L 3.719733 1.480514 L 3.712024 1.486280 L 3.703765 1.491296 L 3.695020 1.495510 L 3.695012 1.495513 L 3.695005 1.495514 L 3.685811 1.498882 L 3.676213 1.501349 L 3.666270 1.502867 L 3.656029 1.503384 L 2.789961 1.503384 L 2.789961 1.303083 L 3.656029 1.303083 Z M 1.997436 1.208230 L 1.109714 1.208230 L 1.089530 1.206196 L 1.070731 1.200360 L 1.053720 1.191126 L 1.038899 1.178897 L 1.026668 1.164074 L 1.017435 1.147063 L 1.011599 1.128264 L 1.009565 1.108080 L 1.011599 1.087897 L 1.017435 1.069098 L 1.026668 1.052087 L 1.038899 1.037264 L 1.053720 1.025035 L 1.070731 1.015802 L 1.089530 1.009966 L 1.109714 1.007931 L 1.997436 1.007931 Z M 3.676165 1.008433 L 3.686110 1.009952 L 3.695708 1.012419 L 3.704908 1.015788 L 3.713662 1.020005 L 3.721920 1.025021 L 3.729629 1.030787 L 3.736741 1.037251 L 3.743205 1.044363 L 3.748971 1.052072 L 3.753988 1.060330 L 3.758205 1.069084 L 3.761572 1.078286 L 3.764040 1.087883 L 3.765558 1.097827 L 3.766074 1.108068 L 3.765558 1.118307 L 3.764040 1.128251 L 3.761572 1.137850 L 3.758205 1.147051 L 3.753988 1.155805 L 3.748971 1.164062 L 3.743205 1.171772 L 3.736741 1.178884 L 3.729629 1.185349 L 3.721920 1.191114 L 3.713662 1.196130 L 3.704908 1.200348 L 3.695708 1.203714 L 3.686110 1.206184 L 3.676165 1.207700 L 3.665946 1.208217 L 3.665924 1.208218 L 2.789961 1.208218 L 2.789961 1.007917 L 3.665924 1.007917 Z" transform="scale(72.000000,72.000000) translate(-0.166667,0.180556)" fill="#ff9d16" opacity="1.000000"></path>
    </g>
</svg>