<?xml version="1.0" encoding="UTF-8" standalone="yes"?>
<!DOCTYPE svg PUBLIC "-//W3C//DTD SVG 1.1//EN" "http://www.w3.org/Graphics/SVG/1.1/DTD/svg11.dtd">

<svg width="1139" height="282" viewBox="0 0 1139 282" xmlns="http://www.w3.org/2000/svg" xmlns:xlink="http://www.w3.org/1999/xlink" version="1.1" baseProfile="full">
    <g transform="scale(1,-1) translate(0,-282)">
        <path d="M 2.385492 3.410077 L 2.823494 3.410077 L 2.833734 3.410594 L 2.843677 3.412111 L 2.853275 3.414580 L 2.862475 3.417947 L 2.871231 3.422165 L 2.879479 3.427177 L 2.879488 3.427182 L 2.879498 3.427189 L 2.887198 3.432946 L 2.894309 3.439410 L 2.900772 3.446523 L 2.906538 3.454233 L 2.911556 3.462489 L 2.915773 3.471244 L 2.919140 3.480446 L 2.921609 3.490043 L 2.923126 3.499988 L 2.923641 3.510208 L 2.923643 3.510227 L 2.923641 3.510248 L 2.923126 3.520468 L 2.921609 3.530411 L 2.919140 3.540009 L 2.915773 3.549211 L 2.911556 3.557966 L 2.906538 3.566223 L 2.900772 3.573933 L 2.894321 3.581033 L 2.894311 3.581045 L 2.894300 3.581054 L 2.887198 3.587509 L 2.879498 3.593267 L 2.879488 3.593274 L 2.879479 3.593279 L 2.871231 3.598290 L 2.862475 3.602509 L 2.853275 3.605876 L 2.843677 3.608344 L 2.833734 3.609861 L 2.823514 3.610377 L 2.823494 3.610378 L 2.376819 3.610378 L 2.376819 3.610359 L 1.938814 3.610359 L 1.918630 3.608324 L 1.899831 3.602488 L 1.882820 3.593255 L 1.867997 3.581025 L 1.855769 3.566204 L 1.846535 3.549192 L 1.840700 3.530393 L 1.838666 3.510209 L 1.840700 3.490025 L 1.846535 3.471226 L 1.855769 3.454215 L 1.867997 3.439394 L 1.882820 3.427164 L 1.899831 3.417930 L 1.918630 3.412094 L 1.938814 3.410061 Z M 2.046953 3.134537 L 2.095528 3.193412 L 2.154400 3.241986 L 2.221976 3.278662 L 2.296646 3.301843 L 2.376817 3.309925 L 2.456987 3.301843 L 2.531661 3.278662 L 2.599233 3.241986 L 2.658105 3.193412 L 2.706683 3.134537 L 2.720204 3.109625 L 3.093485 3.109625 L 3.103725 3.110143 L 3.113669 3.111660 L 3.123265 3.114129 L 3.132466 3.117495 L 3.141221 3.121713 L 3.149480 3.126731 L 3.157188 3.132494 L 3.164302 3.138959 L 3.170765 3.146071 L 3.176520 3.153769 L 3.176530 3.153782 L 3.176539 3.153796 L 3.181546 3.162039 L 3.185763 3.170792 L 3.189130 3.179994 L 3.191599 3.189592 L 3.193116 3.199537 L 3.193634 3.209776 L 3.193116 3.220016 L 3.191599 3.229960 L 3.189130 3.239556 L 3.185763 3.248759 L 3.181546 3.257515 L 3.176539 3.265755 L 3.176530 3.265772 L 3.176520 3.265784 L 3.170765 3.273480 L 3.164302 3.280593 L 3.157188 3.287057 L 3.149480 3.292823 L 3.141221 3.297839 L 3.132475 3.302053 L 3.132467 3.302056 L 3.132461 3.302058 L 3.123265 3.305425 L 3.113669 3.307892 L 3.103725 3.309410 L 3.093504 3.309925 L 3.093485 3.309926 L 1.691398 3.309926 L 1.691398 3.309912 L 1.668823 3.309912 L 1.648639 3.307877 L 1.629840 3.302041 L 1.612828 3.292806 L 1.598006 3.280577 L 1.585777 3.265755 L 1.576544 3.248743 L 1.570708 3.229945 L 1.568674 3.209762 L 1.570708 3.189578 L 1.576544 3.170779 L 1.585777 3.153767 L 1.598006 3.138945 L 1.612828 3.126716 L 1.629840 3.117483 L 1.648639 3.111647 L 1.668823 3.109613 L 2.033424 3.109613 Z M 1.994167 2.809169 L 1.987095 2.831949 L 1.979015 2.912123 L 1.987095 2.992294 L 1.992429 3.009475 L 1.865882 3.009475 L 1.865882 3.009463 L 1.494341 3.009463 L 1.474157 3.007428 L 1.455358 3.001592 L 1.438346 2.992359 L 1.423524 2.980130 L 1.411295 2.965308 L 1.402062 2.948296 L 1.396226 2.929497 L 1.394192 2.909314 L 1.396226 2.889130 L 1.402062 2.870332 L 1.411295 2.853320 L 1.423524 2.838498 L 1.438346 2.826269 L 1.455358 2.817034 L 1.474157 2.811198 L 1.494341 2.809165 Z M 3.267966 2.809174 L 3.278206 2.809691 L 3.288150 2.811209 L 3.297748 2.813675 L 3.306949 2.817043 L 3.315705 2.821261 L 3.323961 2.826277 L 3.331670 2.832043 L 3.338782 2.838506 L 3.345246 2.845619 L 3.351011 2.853329 L 3.356027 2.861587 L 3.360245 2.870341 L 3.363614 2.879543 L 3.366081 2.889141 L 3.367599 2.899085 L 3.368114 2.909304 L 3.368115 2.909324 L 3.368114 2.909345 L 3.367599 2.919565 L 3.366081 2.929508 L 3.363614 2.939106 L 3.360245 2.948307 L 3.356027 2.957062 L 3.351011 2.965320 L 3.345246 2.973028 L 3.338782 2.980142 L 3.331670 2.986605 L 3.323971 2.992363 L 3.323962 2.992370 L 3.323952 2.992376 L 3.315705 2.997387 L 3.306949 3.001604 L 3.297748 3.004973 L 3.288150 3.007440 L 3.278206 3.008958 L 3.267966 3.009475 L 2.761204 3.009475 L 2.766538 2.992294 L 2.774622 2.912123 L 2.766538 2.831949 L 2.759468 2.809174 Z M 2.376794 2.514321 L 2.296646 2.522399 L 2.221976 2.545581 L 2.154400 2.582256 L 2.095528 2.630831 L 2.046953 2.689707 L 2.033429 2.714622 L 1.990772 2.714622 L 1.990772 2.714613 L 1.369450 2.714613 L 1.349266 2.712579 L 1.330467 2.706744 L 1.313456 2.697509 L 1.298635 2.685280 L 1.286405 2.670458 L 1.277171 2.653447 L 1.271335 2.634647 L 1.269300 2.614463 L 1.271335 2.594281 L 1.277171 2.575482 L 1.286405 2.558469 L 1.298635 2.543648 L 1.313456 2.531419 L 1.330467 2.522186 L 1.349266 2.516350 L 1.369450 2.514315 Z M 3.403095 2.514837 L 3.413039 2.516355 L 3.422636 2.518822 L 3.431838 2.522192 L 3.440594 2.526409 L 3.448843 2.531420 L 3.448851 2.531424 L 3.448862 2.531433 L 3.456561 2.537190 L 3.463671 2.543654 L 3.470136 2.550765 L 3.475902 2.558476 L 3.480919 2.566734 L 3.485136 2.575487 L 3.488503 2.584690 L 3.490971 2.594288 L 3.492488 2.604230 L 3.493003 2.614450 L 3.493007 2.614471 L 3.493003 2.614490 L 3.492488 2.624711 L 3.490971 2.634653 L 3.488503 2.644253 L 3.485136 2.653455 L 3.480919 2.662209 L 3.475902 2.670466 L 3.470136 2.678176 L 3.463671 2.685289 L 3.456561 2.691752 L 3.448862 2.697509 L 3.448851 2.697518 L 3.448843 2.697522 L 3.440594 2.702533 L 3.431838 2.706751 L 3.422636 2.710119 L 3.413039 2.712587 L 3.403095 2.714104 L 3.392858 2.714622 L 2.720205 2.714622 L 2.706683 2.689707 L 2.658105 2.630831 L 2.599233 2.582256 L 2.531661 2.545581 L 2.456987 2.522399 L 2.376839 2.514321 L 3.392858 2.514321 Z M 2.385492 2.208271 L 3.493008 2.208271 L 3.503245 2.208787 L 3.513187 2.210305 L 3.513189 2.210305 L 3.513193 2.210306 L 3.522786 2.212772 L 3.531987 2.216141 L 3.540741 2.220359 L 3.549000 2.225375 L 3.556711 2.231140 L 3.563822 2.237604 L 3.570285 2.244716 L 3.576051 2.252427 L 3.581066 2.260684 L 3.585275 2.269421 L 3.585284 2.269438 L 3.585290 2.269456 L 3.588651 2.278639 L 3.591120 2.288237 L 3.592637 2.298180 L 3.593154 2.308420 L 3.592637 2.318660 L 3.591120 2.328604 L 3.588651 2.338202 L 3.585293 2.347379 L 3.585284 2.347405 L 3.585272 2.347429 L 3.581066 2.356159 L 3.576051 2.364417 L 3.570285 2.372126 L 3.563822 2.379238 L 3.556711 2.385702 L 3.549000 2.391468 L 3.540741 2.396484 L 3.531987 2.400700 L 3.522786 2.404070 L 3.513193 2.406536 L 3.513189 2.406537 L 3.513187 2.406537 L 3.503245 2.408055 L 3.493027 2.408570 L 3.493007 2.408572 L 2.090920 2.408572 L 2.090920 2.408568 L 1.269300 2.408568 L 1.249118 2.406533 L 1.230319 2.400698 L 1.213306 2.391463 L 1.198485 2.379234 L 1.186256 2.364412 L 1.177023 2.347401 L 1.171187 2.328601 L 1.169152 2.308419 L 1.171187 2.288235 L 1.177023 2.269436 L 1.186256 2.252424 L 1.198485 2.237602 L 1.213306 2.225373 L 1.230319 2.216140 L 1.249118 2.210304 L 1.269300 2.208270 Z M 3.578848 1.908335 L 3.588791 1.909853 L 3.598388 1.912321 L 3.607590 1.915689 L 3.616346 1.919904 L 3.624603 1.924922 L 3.632313 1.930688 L 3.639424 1.937152 L 3.645888 1.944263 L 3.651654 1.951972 L 3.656670 1.960230 L 3.660888 1.968985 L 3.664256 1.978187 L 3.666722 1.987786 L 3.668240 1.997728 L 3.668756 2.007969 L 3.668240 2.018208 L 3.666722 2.028153 L 3.664256 2.037751 L 3.660888 2.046952 L 3.656670 2.055707 L 3.651654 2.063963 L 3.645888 2.071674 L 3.639424 2.078787 L 3.632313 2.085250 L 3.624614 2.091007 L 3.624603 2.091016 L 3.624595 2.091020 L 3.616346 2.096032 L 3.607590 2.100249 L 3.598388 2.103618 L 3.588791 2.106085 L 3.578848 2.107601 L 3.568610 2.108120 L 1.193698 2.108120 L 1.173514 2.106085 L 1.154714 2.100249 L 1.137704 2.091016 L 1.122882 2.078787 L 1.110651 2.063964 L 1.101418 2.046953 L 1.095584 2.028154 L 1.093548 2.007971 L 1.095584 1.987787 L 1.101418 1.968988 L 1.110651 1.951977 L 1.122882 1.937154 L 1.137704 1.924926 L 1.154714 1.915691 L 1.173514 1.909855 L 1.193698 1.907821 L 2.046455 1.907821 L 2.055624 1.924715 L 2.104203 1.983587 L 2.163075 2.032165 L 2.230646 2.068841 L 2.305320 2.092019 L 2.385490 2.100103 L 2.465662 2.092019 L 2.540331 2.068841 L 2.607907 2.032165 L 2.666779 1.983587 L 2.715354 1.924715 L 2.724526 1.907818 L 3.568610 1.907818 Z M 1.990771 1.671699 L 1.987686 1.702298 L 1.995770 1.782469 L 2.003593 1.807673 L 1.147581 1.807673 L 1.127397 1.805637 L 1.108598 1.799802 L 1.091587 1.790568 L 1.076764 1.778338 L 1.064535 1.763517 L 1.055302 1.746505 L 1.049466 1.727707 L 1.047432 1.707524 L 1.049466 1.687339 L 1.055302 1.668540 L 1.064535 1.651528 L 1.076764 1.636707 L 1.091587 1.624477 L 1.108598 1.615244 L 1.127397 1.609408 L 1.147581 1.607374 L 1.990771 1.607374 Z M 3.624965 1.607884 L 3.634909 1.609401 L 3.644507 1.611870 L 3.653707 1.615238 L 3.662462 1.619453 L 3.670719 1.624471 L 3.678430 1.630236 L 3.685540 1.636700 L 3.692005 1.643811 L 3.697769 1.651522 L 3.702786 1.659781 L 3.707005 1.668534 L 3.710371 1.677735 L 3.712841 1.687334 L 3.714356 1.697277 L 3.714873 1.707518 L 3.714356 1.717757 L 3.712841 1.727702 L 3.710371 1.737300 L 3.707005 1.746501 L 3.702786 1.755255 L 3.697769 1.763512 L 3.692005 1.771222 L 3.685540 1.778333 L 3.678430 1.784799 L 3.670719 1.790563 L 3.662462 1.795581 L 3.653707 1.799798 L 3.644507 1.803164 L 3.634909 1.805634 L 3.624965 1.807150 L 3.614727 1.807669 L 2.767390 1.807669 L 2.775212 1.782469 L 2.783292 1.702298 L 2.783292 1.607367 L 3.614727 1.607367 Z M 1.990771 1.504809 L 1.112943 1.504809 L 1.092760 1.502773 L 1.073961 1.496938 L 1.056949 1.487703 L 1.042127 1.475474 L 1.029899 1.460653 L 1.020665 1.443641 L 1.014829 1.424841 L 1.012794 1.404659 L 1.014829 1.384475 L 1.020665 1.365676 L 1.029899 1.348664 L 1.042127 1.333842 L 1.056949 1.321613 L 1.073961 1.312380 L 1.092760 1.306544 L 1.112943 1.304510 L 1.990771 1.304510 Z M 3.659602 1.305014 L 3.669547 1.306534 L 3.679144 1.309001 L 3.688338 1.312368 L 3.688346 1.312369 L 3.688354 1.312374 L 3.697099 1.316586 L 3.705357 1.321602 L 3.713067 1.327368 L 3.720178 1.333832 L 3.726641 1.340944 L 3.732408 1.348655 L 3.737425 1.356912 L 3.741633 1.365650 L 3.741642 1.365667 L 3.741648 1.365685 L 3.745009 1.374867 L 3.747476 1.384465 L 3.748995 1.394410 L 3.749511 1.404649 L 3.748995 1.414890 L 3.747476 1.424833 L 3.745009 1.434431 L 3.741648 1.443615 L 3.741642 1.443633 L 3.741633 1.443647 L 3.737425 1.452387 L 3.732408 1.460645 L 3.726641 1.468354 L 3.720178 1.475467 L 3.713067 1.481930 L 3.705357 1.487696 L 3.697099 1.492712 L 3.688354 1.496926 L 3.688346 1.496929 L 3.688338 1.496930 L 3.679144 1.500298 L 3.669547 1.502765 L 3.659602 1.504283 L 3.649363 1.504800 L 2.783292 1.504800 L 2.783292 1.304499 L 3.649363 1.304499 Z M 1.990771 1.209646 L 1.103048 1.209646 L 1.082864 1.207612 L 1.064065 1.201776 L 1.047053 1.192541 L 1.032231 1.180313 L 1.020002 1.165490 L 1.010769 1.148479 L 1.004933 1.129680 L 1.002899 1.109496 L 1.004933 1.089313 L 1.010769 1.070514 L 1.020002 1.053503 L 1.032231 1.038680 L 1.047053 1.026451 L 1.064065 1.017218 L 1.082864 1.011382 L 1.103048 1.009347 L 1.990771 1.009347 Z M 3.669499 1.009849 L 3.679442 1.011368 L 3.689040 1.013835 L 3.698241 1.017204 L 3.706995 1.021421 L 3.715254 1.026437 L 3.722962 1.032203 L 3.730075 1.038667 L 3.736539 1.045778 L 3.742304 1.053488 L 3.747320 1.061745 L 3.751538 1.070500 L 3.754906 1.079702 L 3.757373 1.089299 L 3.758890 1.099243 L 3.759408 1.109484 L 3.758890 1.119723 L 3.757373 1.129667 L 3.754906 1.139266 L 3.751538 1.148467 L 3.747320 1.157221 L 3.742304 1.165478 L 3.736539 1.173188 L 3.730075 1.180299 L 3.722962 1.186765 L 3.715254 1.192529 L 3.706995 1.197546 L 3.698241 1.201764 L 3.689040 1.205130 L 3.679442 1.207600 L 3.669499 1.209116 L 3.659280 1.209633 L 3.659258 1.209634 L 2.783292 1.209634 L 2.783292 1.009333 L 3.659258 1.009333 Z" transform="scale(72.000000,72.000000) translate(0.444444,-0.347222)" fill="#ff9d16" opacity="1.000000"></path>
        <path d="M 2.390701 3.410077 L 2.828702 3.410077 L 2.838943 3.410594 L 2.848885 3.412111 L 2.858484 3.414580 L 2.867685 3.417947 L 2.876439 3.422165 L 2.884688 3.427177 L 2.884697 3.427182 L 2.884708 3.427189 L 2.892406 3.432946 L 2.899518 3.439410 L 2.905982 3.446523 L 2.911747 3.454233 L 2.916764 3.462489 L 2.920983 3.471244 L 2.924349 3.480446 L 2.926818 3.490043 L 2.928335 3.499988 L 2.928851 3.510208 L 2.928852 3.510227 L 2.928851 3.510248 L 2.928335 3.520468 L 2.926818 3.530411 L 2.924349 3.540009 L 2.920983 3.549211 L 2.916764 3.557966 L 2.911747 3.566223 L 2.905982 3.573933 L 2.899530 3.581033 L 2.899520 3.581045 L 2.899510 3.581054 L 2.892406 3.587509 L 2.884708 3.593267 L 2.884697 3.593274 L 2.884688 3.593279 L 2.876439 3.598290 L 2.867685 3.602509 L 2.858484 3.605876 L 2.848885 3.608344 L 2.838943 3.609861 L 2.828724 3.610377 L 2.828702 3.610378 L 2.382028 3.610378 L 2.382028 3.610359 L 1.944023 3.610359 L 1.923839 3.608324 L 1.905040 3.602488 L 1.888028 3.593255 L 1.873207 3.581025 L 1.860977 3.566204 L 1.851744 3.549192 L 1.845908 3.530393 L 1.843874 3.510209 L 1.845908 3.490025 L 1.851744 3.471226 L 1.860977 3.454215 L 1.873207 3.439394 L 1.888028 3.427164 L 1.905040 3.417930 L 1.923839 3.412094 L 1.944023 3.410061 Z M 2.052162 3.134537 L 2.100735 3.193412 L 2.159611 3.241986 L 2.227183 3.278665 L 2.301853 3.301843 L 2.382028 3.309925 L 2.462198 3.301843 L 2.536868 3.278665 L 2.604441 3.241986 L 2.663316 3.193412 L 2.711891 3.134537 L 2.725411 3.109625 L 3.098694 3.109625 L 3.108933 3.110143 L 3.118878 3.111660 L 3.128475 3.114129 L 3.137675 3.117495 L 3.146430 3.121713 L 3.154688 3.126731 L 3.162397 3.132494 L 3.169511 3.138959 L 3.175975 3.146071 L 3.181729 3.153769 L 3.181738 3.153782 L 3.181748 3.153796 L 3.186756 3.162039 L 3.190973 3.170792 L 3.194339 3.179994 L 3.196809 3.189592 L 3.198325 3.199537 L 3.198844 3.209776 L 3.198325 3.220016 L 3.196809 3.229960 L 3.194339 3.239556 L 3.190973 3.248759 L 3.186756 3.257515 L 3.181748 3.265755 L 3.181738 3.265772 L 3.181729 3.265784 L 3.175975 3.273480 L 3.169511 3.280593 L 3.162397 3.287057 L 3.154688 3.292823 L 3.146430 3.297839 L 3.137684 3.302053 L 3.137677 3.302056 L 3.137671 3.302058 L 3.128475 3.305425 L 3.118878 3.307892 L 3.108933 3.309410 L 3.098714 3.309925 L 3.098694 3.309926 L 1.696608 3.309926 L 1.696608 3.309912 L 1.674031 3.309912 L 1.653847 3.307877 L 1.635049 3.302041 L 1.618037 3.292806 L 1.603216 3.280577 L 1.590986 3.265755 L 1.581752 3.248743 L 1.575917 3.229945 L 1.573883 3.209762 L 1.575917 3.189578 L 1.581752 3.170779 L 1.590986 3.153767 L 1.603216 3.138945 L 1.618037 3.126716 L 1.635049 3.117483 L 1.653847 3.111647 L 1.674031 3.109613 L 2.038634 3.109613 Z M 1.999376 2.809169 L 1.992303 2.831953 L 1.984222 2.912123 L 1.992303 2.992294 L 1.997637 3.009475 L 1.871090 3.009475 L 1.871090 3.009463 L 1.499549 3.009463 L 1.479365 3.007428 L 1.460566 3.001592 L 1.443555 2.992359 L 1.428734 2.980130 L 1.416504 2.965308 L 1.407270 2.948296 L 1.401434 2.929497 L 1.399400 2.909314 L 1.401434 2.889130 L 1.407270 2.870332 L 1.416504 2.853320 L 1.428734 2.838498 L 1.443555 2.826269 L 1.460566 2.817034 L 1.479365 2.811198 L 1.499549 2.809165 Z M 3.273175 2.809174 L 3.283414 2.809691 L 3.293359 2.811209 L 3.302957 2.813675 L 3.312158 2.817043 L 3.320913 2.821261 L 3.329169 2.826277 L 3.336879 2.832043 L 3.343990 2.838506 L 3.350456 2.845619 L 3.356219 2.853329 L 3.361237 2.861587 L 3.365455 2.870341 L 3.368822 2.879543 L 3.371291 2.889141 L 3.372807 2.899085 L 3.373323 2.909304 L 3.373325 2.909324 L 3.373323 2.909345 L 3.372807 2.919565 L 3.371291 2.929508 L 3.368822 2.939106 L 3.365455 2.948307 L 3.361237 2.957062 L 3.356219 2.965320 L 3.350456 2.973028 L 3.343990 2.980142 L 3.336879 2.986605 L 3.329180 2.992363 L 3.329170 2.992370 L 3.329162 2.992376 L 3.320913 2.997387 L 3.312158 3.001604 L 3.302957 3.004973 L 3.293359 3.007440 L 3.283414 3.008958 L 3.273175 3.009475 L 2.766415 3.009475 L 2.771749 2.992294 L 2.779829 2.912123 L 2.771749 2.831953 L 2.764677 2.809174 Z M 2.382005 2.514321 L 2.301853 2.522402 L 2.227183 2.545581 L 2.159611 2.582256 L 2.100735 2.630835 L 2.052162 2.689707 L 2.038639 2.714622 L 1.995981 2.714622 L 1.995981 2.714613 L 1.374659 2.714613 L 1.354476 2.712579 L 1.335677 2.706744 L 1.318664 2.697509 L 1.303843 2.685280 L 1.291614 2.670458 L 1.282380 2.653447 L 1.276544 2.634647 L 1.274509 2.614463 L 1.276544 2.594281 L 1.282380 2.575482 L 1.291614 2.558469 L 1.303843 2.543648 L 1.318664 2.531419 L 1.335677 2.522186 L 1.354476 2.516350 L 1.374659 2.514315 Z M 3.408305 2.514837 L 3.418248 2.516355 L 3.427846 2.518822 L 3.437047 2.522192 L 3.445804 2.526409 L 3.454051 2.531420 L 3.454061 2.531424 L 3.454070 2.531433 L 3.461770 2.537190 L 3.468881 2.543654 L 3.475345 2.550765 L 3.481111 2.558476 L 3.486127 2.566734 L 3.490344 2.575487 L 3.493712 2.584690 L 3.496180 2.594288 L 3.497696 2.604230 L 3.498213 2.614450 L 3.498215 2.614471 L 3.498213 2.614490 L 3.497696 2.624711 L 3.496180 2.634653 L 3.493712 2.644253 L 3.490344 2.653455 L 3.486127 2.662209 L 3.481111 2.670466 L 3.475345 2.678176 L 3.468881 2.685289 L 3.461770 2.691752 L 3.454070 2.697509 L 3.454061 2.697518 L 3.454051 2.697522 L 3.445804 2.702533 L 3.437047 2.706751 L 3.427846 2.710119 L 3.418248 2.712587 L 3.408305 2.714104 L 3.398068 2.714622 L 2.725414 2.714622 L 2.711891 2.689707 L 2.663316 2.630835 L 2.604441 2.582256 L 2.536868 2.545581 L 2.462198 2.522402 L 2.382050 2.514321 L 3.398068 2.514321 Z M 2.390701 2.208271 L 3.498216 2.208271 L 3.508453 2.208787 L 3.518396 2.210305 L 3.518398 2.210305 L 3.518403 2.210306 L 3.527995 2.212772 L 3.537197 2.216141 L 3.545950 2.220359 L 3.554208 2.225375 L 3.561919 2.231140 L 3.569031 2.237604 L 3.575495 2.244716 L 3.581260 2.252427 L 3.586276 2.260684 L 3.590483 2.269421 L 3.590494 2.269438 L 3.590500 2.269456 L 3.593860 2.278639 L 3.596330 2.288237 L 3.597846 2.298180 L 3.598363 2.308420 L 3.597846 2.318660 L 3.596330 2.328604 L 3.593860 2.338202 L 3.590501 2.347379 L 3.590494 2.347405 L 3.590481 2.347429 L 3.586276 2.356159 L 3.581260 2.364417 L 3.575495 2.372126 L 3.569031 2.379238 L 3.561919 2.385702 L 3.554208 2.391468 L 3.545950 2.396484 L 3.537197 2.400700 L 3.527995 2.404070 L 3.518403 2.406536 L 3.518398 2.406537 L 3.518396 2.406537 L 3.508453 2.408055 L 3.498237 2.408570 L 3.498215 2.408572 L 2.096129 2.408572 L 2.096129 2.408568 L 1.274509 2.408568 L 1.254326 2.406533 L 1.235527 2.400698 L 1.218514 2.391463 L 1.203694 2.379234 L 1.191464 2.364412 L 1.182231 2.347401 L 1.176395 2.328601 L 1.174360 2.308419 L 1.176395 2.288235 L 1.182231 2.269436 L 1.191464 2.252424 L 1.203694 2.237602 L 1.218514 2.225373 L 1.235527 2.216140 L 1.254326 2.210304 L 1.274509 2.208270 Z M 3.584058 1.908335 L 3.594000 1.909853 L 3.603598 1.912321 L 3.612799 1.915689 L 3.621554 1.919904 L 3.629811 1.924922 L 3.637522 1.930688 L 3.644634 1.937152 L 3.651097 1.944263 L 3.656863 1.951972 L 3.661879 1.960230 L 3.666096 1.968985 L 3.669465 1.978187 L 3.671931 1.987786 L 3.673448 1.997728 L 3.673966 2.007969 L 3.673448 2.018208 L 3.671931 2.028153 L 3.669465 2.037751 L 3.666096 2.046952 L 3.661879 2.055707 L 3.656863 2.063963 L 3.651097 2.071674 L 3.644634 2.078787 L 3.637522 2.085250 L 3.629822 2.091007 L 3.629811 2.091016 L 3.629803 2.091020 L 3.621554 2.096032 L 3.612799 2.100249 L 3.603598 2.103618 L 3.594000 2.106085 L 3.584058 2.107601 L 3.573819 2.108120 L 1.198907 2.108120 L 1.178723 2.106085 L 1.159924 2.100249 L 1.142912 2.091016 L 1.128090 2.078787 L 1.115861 2.063964 L 1.106627 2.046953 L 1.100792 2.028154 L 1.098757 2.007971 L 1.100792 1.987787 L 1.106627 1.968988 L 1.115861 1.951977 L 1.128090 1.937154 L 1.142912 1.924926 L 1.159924 1.915691 L 1.178723 1.909855 L 1.198907 1.907821 L 2.051665 1.907821 L 2.060835 1.924715 L 2.109410 1.983587 L 2.168286 2.032165 L 2.235857 2.068841 L 2.310527 2.092019 L 2.390698 2.100103 L 2.470869 2.092019 L 2.545542 2.068841 L 2.613114 2.032165 L 2.671986 1.983587 L 2.720565 1.924715 L 2.729735 1.907818 L 3.573819 1.907818 Z M 1.995978 1.671721 L 1.992897 1.702298 L 2.000978 1.782469 L 2.008800 1.807673 L 1.152790 1.807673 L 1.132606 1.805637 L 1.113807 1.799802 L 1.096795 1.790568 L 1.081974 1.778338 L 1.069744 1.763517 L 1.060511 1.746505 L 1.054676 1.727707 L 1.052641 1.707524 L 1.054676 1.687339 L 1.060511 1.668540 L 1.069744 1.651528 L 1.081974 1.636707 L 1.096795 1.624477 L 1.113807 1.615244 L 1.132606 1.609408 L 1.152790 1.607374 L 1.995978 1.607374 Z M 3.630174 1.607884 L 3.640118 1.609401 L 3.649715 1.611870 L 3.658917 1.615238 L 3.667670 1.619453 L 3.675929 1.624471 L 3.683638 1.630236 L 3.690749 1.636700 L 3.697214 1.643811 L 3.702979 1.651522 L 3.707996 1.659781 L 3.712213 1.668534 L 3.715581 1.677735 L 3.718049 1.687334 L 3.719565 1.697277 L 3.720082 1.707518 L 3.719565 1.717757 L 3.718049 1.727702 L 3.715581 1.737300 L 3.712213 1.746501 L 3.707996 1.755255 L 3.702979 1.763512 L 3.697214 1.771222 L 3.690749 1.778333 L 3.683638 1.784799 L 3.675929 1.790563 L 3.667670 1.795581 L 3.658917 1.799798 L 3.649715 1.803164 L 3.640118 1.805634 L 3.630174 1.807150 L 3.619935 1.807669 L 2.772597 1.807669 L 2.780419 1.782469 L 2.788503 1.702298 L 2.788503 1.607367 L 3.619935 1.607367 Z M 1.995978 1.504809 L 1.118153 1.504809 L 1.097970 1.502773 L 1.079170 1.496938 L 1.062158 1.487703 L 1.047336 1.475474 L 1.035108 1.460653 L 1.025874 1.443641 L 1.020038 1.424841 L 1.018003 1.404659 L 1.020038 1.384475 L 1.025874 1.365676 L 1.035108 1.348664 L 1.047336 1.333842 L 1.062158 1.321613 L 1.079170 1.312380 L 1.097970 1.306544 L 1.118153 1.304510 L 1.995978 1.304510 Z M 3.664812 1.305014 L 3.674755 1.306534 L 3.684353 1.309001 L 3.693547 1.312368 L 3.693554 1.312369 L 3.693563 1.312374 L 3.702307 1.316586 L 3.710566 1.321602 L 3.718275 1.327368 L 3.725387 1.333832 L 3.731851 1.340944 L 3.737617 1.348655 L 3.742633 1.356912 L 3.746842 1.365650 L 3.746850 1.365667 L 3.746856 1.365685 L 3.750218 1.374867 L 3.752686 1.384465 L 3.754204 1.394410 L 3.754720 1.404649 L 3.754204 1.414890 L 3.752686 1.424833 L 3.750218 1.434431 L 3.746856 1.443615 L 3.746850 1.443633 L 3.746842 1.443647 L 3.742633 1.452387 L 3.737617 1.460645 L 3.731851 1.468354 L 3.725387 1.475467 L 3.718275 1.481930 L 3.710566 1.487696 L 3.702307 1.492712 L 3.693563 1.496926 L 3.693554 1.496929 L 3.693547 1.496930 L 3.684353 1.500298 L 3.674755 1.502765 L 3.664812 1.504283 L 3.654571 1.504800 L 2.788503 1.504800 L 2.788503 1.304499 L 3.654571 1.304499 Z M 1.995978 1.209646 L 1.108256 1.209646 L 1.088072 1.207612 L 1.069273 1.201776 L 1.052262 1.192541 L 1.037441 1.180313 L 1.025211 1.165490 L 1.015977 1.148479 L 1.010141 1.129680 L 1.008108 1.109496 L 1.010141 1.089313 L 1.015977 1.070514 L 1.025211 1.053503 L 1.037441 1.038680 L 1.052262 1.026451 L 1.069273 1.017218 L 1.088072 1.011382 L 1.108256 1.009347 L 1.995978 1.009347 Z M 3.674707 1.009849 L 3.684652 1.011368 L 3.694250 1.013835 L 3.703451 1.017204 L 3.712204 1.021421 L 3.720462 1.026437 L 3.728171 1.032203 L 3.735283 1.038667 L 3.741747 1.045778 L 3.747513 1.053488 L 3.752530 1.061745 L 3.756747 1.070500 L 3.760114 1.079702 L 3.762582 1.089299 L 3.764100 1.099243 L 3.764616 1.109484 L 3.764100 1.119723 L 3.762582 1.129667 L 3.760114 1.139266 L 3.756747 1.148467 L 3.752530 1.157221 L 3.747513 1.165478 L 3.741747 1.173188 L 3.735283 1.180299 L 3.728171 1.186765 L 3.720462 1.192529 L 3.712204 1.197546 L 3.703451 1.201764 L 3.694250 1.205130 L 3.684652 1.207600 L 3.674707 1.209116 L 3.664488 1.209633 L 3.664466 1.209634 L 2.788503 1.209634 L 2.788503 1.009333 L 3.664466 1.009333 Z" transform="scale(72.000000,72.000000) translate(6.347222,-0.347222)" fill="#ff9d16" opacity="1.000000"></path>
        <path d="M 3.369061 3.607383 L 3.108532 3.607383 L 3.108532 1.009333 L 3.369061 1.009333 Z M 1.722664 3.354091 L 1.796461 3.353455 L 1.865932 3.351038 L 1.899073 3.348924 L 1.931163 3.346077 L 1.962215 3.342404 L 1.992239 3.337808 L 2.021245 3.332195 L 2.049244 3.325469 L 2.076246 3.317534 L 2.102263 3.308295 L 2.127303 3.297657 L 2.151380 3.285524 L 2.174503 3.271802 L 2.196681 3.256393 L 2.214610 3.241521 L 2.231728 3.225453 L 2.247987 3.208260 L 2.263340 3.190017 L 2.277739 3.170799 L 2.291136 3.150680 L 2.303483 3.129735 L 2.314733 3.108037 L 2.324839 3.085659 L 2.333752 3.062679 L 2.341424 3.039167 L 2.347808 3.015200 L 2.352857 2.990852 L 2.356522 2.966196 L 2.358757 2.941307 L 2.359512 2.916259 L 2.358799 2.891807 L 2.356692 2.867367 L 2.353239 2.843032 L 2.348487 2.818899 L 2.342484 2.795063 L 2.335278 2.771619 L 2.326917 2.748663 L 2.317447 2.726290 L 2.306918 2.704595 L 2.295376 2.683674 L 2.282870 2.663622 L 2.269447 2.644535 L 2.255154 2.626508 L 2.240039 2.609637 L 2.224151 2.594016 L 2.207537 2.579742 L 2.185149 2.563019 L 2.161416 2.548066 L 2.136346 2.534789 L 2.109952 2.523091 L 2.082242 2.512877 L 2.053230 2.504051 L 2.022923 2.496520 L 1.991334 2.490185 L 1.958473 2.484954 L 1.924351 2.480729 L 1.888977 2.477416 L 1.852363 2.474920 L 1.814519 2.473144 L 1.775457 2.471994 L 1.693716 2.471188 L 1.520031 2.470066 L 1.520031 2.217897 L 1.650140 2.218745 L 1.712040 2.219996 L 1.771852 2.221968 L 1.829587 2.224787 L 1.885254 2.228583 L 1.938865 2.233480 L 1.990430 2.239608 L 2.039959 2.247092 L 2.087464 2.256060 L 2.132954 2.266640 L 2.176441 2.278958 L 2.217935 2.293142 L 2.257446 2.309319 L 2.276462 2.318195 L 2.294986 2.327617 L 2.313020 2.337600 L 2.330565 2.348161 L 2.364349 2.370919 L 2.396453 2.395724 L 2.426808 2.422500 L 2.455345 2.451174 L 2.481994 2.481671 L 2.506688 2.513917 L 2.529357 2.547839 L 2.549933 2.583360 L 2.568346 2.620409 L 2.584527 2.658910 L 2.598408 2.698789 L 2.609920 2.739972 L 2.618994 2.782384 L 2.625560 2.825952 L 2.629551 2.870602 L 2.630896 2.916259 L 2.630421 2.943554 L 2.629003 2.970476 L 2.626653 2.997013 L 2.623384 3.023151 L 2.619205 3.048879 L 2.614128 3.074183 L 2.608165 3.099052 L 2.601326 3.123471 L 2.593624 3.147430 L 2.585069 3.170915 L 2.575673 3.193914 L 2.565446 3.216413 L 2.554400 3.238402 L 2.542547 3.259866 L 2.529897 3.280793 L 2.516463 3.301171 L 2.502254 3.320988 L 2.487283 3.340230 L 2.471560 3.358884 L 2.455097 3.376940 L 2.437906 3.394383 L 2.419997 3.411201 L 2.401381 3.427382 L 2.382071 3.442913 L 2.362077 3.457781 L 2.341410 3.471974 L 2.320082 3.485480 L 2.298104 3.498285 L 2.275488 3.510378 L 2.252244 3.521744 L 2.228384 3.532373 L 2.203919 3.542251 L 2.179284 3.550734 L 2.152878 3.558555 L 2.124713 3.565729 L 2.094799 3.572273 L 2.063147 3.578202 L 2.029766 3.583531 L 1.994668 3.588277 L 1.957864 3.592457 L 1.879177 3.599178 L 1.793789 3.603821 L 1.701787 3.606514 L 1.603255 3.607383 L 1.002592 3.607383 L 1.002592 1.009333 L 1.263120 1.009333 L 1.263120 3.354091 Z" transform="scale(72.000000,72.000000) translate(3.583333,-0.347222)" fill="#191919" opacity="1.000000"></path>
        <path d="M 1.264846 3.354091 L 1.796761 3.354091 L 1.832762 3.353552 L 1.867499 3.351955 L 1.900982 3.349320 L 1.933213 3.345666 L 1.964208 3.341016 L 1.993968 3.335391 L 2.022505 3.328809 L 2.049824 3.321296 L 2.075935 3.312872 L 2.100847 3.303560 L 2.124564 3.293376 L 2.147098 3.282342 L 2.168455 3.270483 L 2.188644 3.257818 L 2.207670 3.244369 L 2.225546 3.230158 L 2.242275 3.215202 L 2.257868 3.199529 L 2.272332 3.183152 L 2.285675 3.166100 L 2.297904 3.148389 L 2.309030 3.130044 L 2.319056 3.111080 L 2.327994 3.091525 L 2.335851 3.071399 L 2.342634 3.050720 L 2.348351 3.029509 L 2.353013 3.007792 L 2.356622 2.985588 L 2.359191 2.962916 L 2.360727 2.939799 L 2.361236 2.916258 L 2.360525 2.891250 L 2.358411 2.866474 L 2.354940 2.841998 L 2.350158 2.817881 L 2.344100 2.794186 L 2.336815 2.770981 L 2.328339 2.748327 L 2.318723 2.726288 L 2.308000 2.704927 L 2.296218 2.684310 L 2.283422 2.664495 L 2.269646 2.645553 L 2.254940 2.627541 L 2.239340 2.610526 L 2.222897 2.594570 L 2.205644 2.579740 L 2.183894 2.563571 L 2.160719 2.548950 L 2.136130 2.535797 L 2.110151 2.524049 L 2.082791 2.513641 L 2.054072 2.504494 L 2.024003 2.496549 L 1.992609 2.489733 L 1.959895 2.483976 L 1.925887 2.479208 L 1.890593 2.475364 L 1.854031 2.472374 L 1.816220 2.470168 L 1.777177 2.468676 L 1.695441 2.467570 L 1.590509 2.468134 L 1.521735 2.468929 L 1.521735 2.077391 L 2.346764 1.009331 L 2.668807 1.009331 L 1.768191 2.170743 L 1.768191 2.218475 L 1.810382 2.219142 L 1.848285 2.220714 L 1.885214 2.222935 L 1.921178 2.225815 L 1.956186 2.229370 L 1.990245 2.233602 L 2.023366 2.238531 L 2.055552 2.244164 L 2.086811 2.250514 L 2.117154 2.257591 L 2.146588 2.265407 L 2.175125 2.273975 L 2.202763 2.283302 L 2.229519 2.293401 L 2.255398 2.304285 L 2.280406 2.315964 L 2.304555 2.328450 L 2.327848 2.341752 L 2.350297 2.355883 L 2.371907 2.370857 L 2.392689 2.386681 L 2.412651 2.403366 L 2.431798 2.420923 L 2.450140 2.439370 L 2.467682 2.458712 L 2.484437 2.478959 L 2.500407 2.500126 L 2.515604 2.522227 L 2.530035 2.545267 L 2.543712 2.569259 L 2.556633 2.594215 L 2.576521 2.635955 L 2.592931 2.675064 L 2.606120 2.712648 L 2.611584 2.731213 L 2.616337 2.749807 L 2.620416 2.768574 L 2.623846 2.787648 L 2.628892 2.827266 L 2.631732 2.869768 L 2.632623 2.916258 L 2.632157 2.943552 L 2.630768 2.970476 L 2.628467 2.997011 L 2.625257 3.023151 L 2.621152 3.048876 L 2.616165 3.074181 L 2.610298 3.099049 L 2.603562 3.123470 L 2.595966 3.147429 L 2.587522 3.170912 L 2.578240 3.193911 L 2.568125 3.216412 L 2.557190 3.238399 L 2.545441 3.259863 L 2.532890 3.280791 L 2.519544 3.301170 L 2.505417 3.320985 L 2.490513 3.340228 L 2.474839 3.358884 L 2.458414 3.376940 L 2.441238 3.394380 L 2.423326 3.411200 L 2.404684 3.427380 L 2.385323 3.442910 L 2.365252 3.457781 L 2.344478 3.471974 L 2.323014 3.485479 L 2.300869 3.498283 L 2.278049 3.510376 L 2.254566 3.521744 L 2.230428 3.532371 L 2.205644 3.542251 L 2.180970 3.550734 L 2.154449 3.558555 L 2.126107 3.565726 L 2.095958 3.572271 L 2.064032 3.578201 L 2.030347 3.583529 L 1.994921 3.588275 L 1.957780 3.592456 L 1.878430 3.599177 L 1.792462 3.603820 L 1.700052 3.606513 L 1.601363 3.607382 L 1.004317 3.607382 L 1.004317 1.009331 L 1.264846 1.009331 Z M 4.080002 2.250459 L 4.905010 3.607382 L 4.604680 3.607382 L 3.949740 2.536318 L 3.283942 3.607382 L 2.983612 3.607382 L 3.819474 2.250459 L 3.819474 1.009331 L 4.080002 1.009331 Z" transform="scale(72.000000,72.000000) translate(9.500000,-0.347222)" fill="#191919" opacity="1.000000"></path>
    </g>
</svg>